<svg width="70" height="70" viewBox="0 0 70 70" fill="none" xmlns="http://www.w3.org/2000/svg">
<g clip-path="url(#clip0)">
<path d="M38.2293 40.2712C37.6184 39.0374 36.4376 38.1842 35.0745 37.9906V35.484H32.6118V38.1043C30.8189 38.5811 29.552 40.1792 29.4973 42.0334C29.442 43.8883 30.6114 45.5586 32.3731 46.1412L34.5352 46.8639C35.3475 47.1332 35.8435 47.9528 35.7064 48.7969C35.5694 49.6417 34.8388 50.2616 33.9833 50.2604H33.2191C32.5583 50.2622 31.954 49.8894 31.66 49.2984L31.2512 48.4794C31.057 48.0826 30.6649 47.8199 30.2236 47.7916C29.7823 47.7634 29.3596 47.9738 29.1161 48.343C28.8732 48.7121 28.8468 49.1835 29.047 49.5779L29.457 50.398C30.0679 51.6318 31.2482 52.485 32.6118 52.6786V55.1858H35.0745V52.5655C36.8675 52.0882 38.1337 50.49 38.189 48.6358C38.2443 46.7815 37.0749 45.1106 35.3132 44.528L33.1511 43.8053C32.3388 43.536 31.8428 42.7171 31.9799 41.8723C32.117 41.0275 32.8475 40.4077 33.7025 40.4095H34.4673C35.1274 40.4071 35.7323 40.7798 36.0263 41.3709L36.4352 42.1898C36.7412 42.7928 37.4771 43.0357 38.082 42.7345C38.6874 42.4327 38.9364 41.6991 38.6393 41.0913L38.2293 40.2712Z" fill="white"/>
<path d="M40 21.2296V17.0137C40 16.3336 39.4487 15.7823 38.7686 15.7823H35.0746V10.8568C35.0746 9.49622 36.1773 8.39412 37.5373 8.39412C38.8973 8.39412 40 9.49622 40 10.8568V12.0509C39.9976 13.8385 40.956 15.4889 42.5096 16.3727C44.0633 17.256 45.9722 17.2361 47.5066 16.3204C49.0416 15.4047 49.9657 13.7344 49.9261 11.9475L49.8509 8.36827C49.8184 7.69607 49.2665 7.16697 48.5937 7.16276C47.9137 7.17659 47.3738 7.73936 47.3882 8.41998L47.4633 11.998C47.4904 12.9029 47.0268 13.7519 46.2506 14.2172C45.475 14.6832 44.5076 14.6934 43.7218 14.2443C42.9365 13.7952 42.4549 12.9564 42.4627 12.0509V10.8568C42.4627 8.13618 40.2573 5.9314 37.5373 5.9314C34.8172 5.9314 32.6118 8.13618 32.6118 10.8568V15.7823H28.9177C28.2377 15.7823 27.6864 16.3336 27.6864 17.0137V21.8628C15.8526 25.5791 8.62732 37.5145 10.8213 49.7229C13.0153 61.9313 23.9442 70.6044 36.3318 69.9677C48.7194 69.3309 58.7019 59.5829 59.6327 47.2139C60.5634 34.845 52.1525 23.7134 40 21.2296ZM35.0746 67.4995C23.9725 67.5055 14.5803 59.293 13.1054 48.2895C11.6312 37.2854 18.5293 26.8898 29.2418 23.9731C29.7769 23.827 30.1485 23.3412 30.1491 22.7863V18.245H37.5373V22.259C37.5379 22.8644 37.9774 23.3791 38.575 23.4747C49.9868 25.2965 58.0802 35.5845 57.1639 47.1045C56.2482 58.6239 46.6306 67.5037 35.0746 67.4995Z" fill="white"/>
<path d="M48.3634 52.1959C47.773 51.8598 47.022 52.0654 46.6853 52.6552C45.1407 55.3494 42.7928 57.4935 39.9693 58.7862C39.442 59.0267 39.1534 59.6021 39.2767 60.1685C39.3993 60.7342 39.9008 61.1383 40.4804 61.1383C40.656 61.1383 40.8291 61.101 40.9884 61.0271C44.2839 59.5215 47.0238 57.0203 48.8227 53.8758C49.1594 53.2847 48.9538 52.5332 48.3634 52.1959Z" fill="white"/>
<path d="M26.7015 29.6423C23.4061 31.1478 20.6662 33.649 18.8672 36.7942C18.5305 37.3846 18.7362 38.1367 19.3266 38.4734C19.5118 38.5805 19.7216 38.6364 19.935 38.6364C20.3776 38.6364 20.7858 38.3989 21.0053 38.0141C22.5493 35.3199 24.8972 33.1764 27.7206 31.8831C28.3237 31.5927 28.584 30.8736 28.3069 30.2646C28.0297 29.6549 27.3166 29.3789 26.7015 29.6423Z" fill="white"/>
<path d="M51.8212 10.7053C51.4256 11.2578 51.5524 12.0268 52.1056 12.423L54.109 13.8564C54.6621 14.252 55.4317 14.1246 55.8273 13.5708C56.223 13.0177 56.0955 12.2487 55.5423 11.8524L53.539 10.4209C52.9858 10.0252 52.2168 10.1521 51.8212 10.7053Z" fill="white"/>
<path d="M57.3154 7.1452C57.2042 6.4742 56.5705 6.02086 55.8995 6.13149L53.4686 6.53432C52.8349 6.63774 52.387 7.21073 52.4393 7.85046C52.4916 8.49019 53.0273 8.98262 53.6694 8.98141C53.7368 8.98141 53.8047 8.9754 53.8714 8.96398L56.3005 8.56114C56.9721 8.45051 57.4266 7.81619 57.3154 7.1452Z" fill="white"/>
<path d="M44.8022 6.92226C45.3379 6.92346 45.8135 6.57774 45.9771 6.06788C46.1412 5.55742 45.9566 5.00006 45.5201 4.68861L43.5179 3.25643C42.9648 2.86081 42.1952 2.98828 41.7996 3.54203C41.4039 4.09518 41.5314 4.86418 42.0846 5.2598L44.0879 6.69198C44.2966 6.84109 44.5461 6.92166 44.8022 6.92226Z" fill="white"/>
<path d="M52.108 1.83079L50.6746 3.83776C50.2796 4.39212 50.4095 5.16172 50.9638 5.55674C51.5188 5.95176 52.2884 5.82189 52.6828 5.26754L54.1114 3.26417C54.507 2.71102 54.3795 1.94142 53.8264 1.54579C53.2732 1.14957 52.5036 1.27764 52.108 1.83079Z" fill="white"/>
<path d="M48.0038 4.93031C48.0718 4.93031 48.1397 4.9249 48.2071 4.91288C48.8781 4.80104 49.3314 4.16672 49.219 3.49573L48.8155 1.06607C48.7548 0.621145 48.4578 0.244762 48.0387 0.0830249C47.6202 -0.0787116 47.1471 5.23414e-05 46.8031 0.288653C46.4598 0.577253 46.2999 1.02939 46.3871 1.47011L46.7911 3.90097C46.8897 4.4938 47.4026 4.92911 48.0038 4.93031Z" fill="white"/>
</g>
<defs>
<clipPath id="clip0">
<rect width="70" height="70" fill="white"/>
</clipPath>
</defs>
</svg>
