<svg width="76" height="76" viewBox="0 0 76 76" fill="none" xmlns="http://www.w3.org/2000/svg">
<g clip-path="url(#clip0)">
<path d="M65.5731 55.7333C65.9754 53.5978 65.965 51.405 65.5427 49.2733L71.344 35.2728C71.3446 35.2636 71.3446 35.2543 71.344 35.245C72.2841 32.6712 73.6618 30.2792 75.4163 28.1744C75.8529 27.7133 76.0285 27.0637 75.8837 26.4454L73.5049 16.1728C73.4766 16.0654 73.434 15.9623 73.3783 15.8662C73.3681 15.8472 73.3643 15.8244 73.3542 15.8067C73.3441 15.789 73.2997 15.7459 73.2744 15.713C73.2225 15.6371 73.1627 15.567 73.0958 15.504C73.0517 15.473 73.0056 15.445 72.9577 15.4204C72.896 15.3749 72.8303 15.3351 72.7614 15.3013C72.6659 15.2652 72.5664 15.241 72.465 15.2291C72.4359 15.2291 72.4105 15.2101 72.3814 15.2076C72.1386 15.1914 71.8963 15.2455 71.6835 15.3634C71.6645 15.3735 71.6417 15.3773 71.6227 15.3887H71.61L62.6661 20.9709C62.1244 21.3063 61.7882 21.892 61.7718 22.5289C61.5233 25.2638 60.8029 27.935 59.6425 30.424V30.438L56.7431 37.4464C55.3201 36.6899 53.7966 36.1398 52.2186 35.8124C52.8159 31.6894 53.0355 27.5203 52.8747 23.3573C55.2326 20.5283 56.3643 16.8753 56.0186 13.2088C55.2269 5.82664 48.5554 0.495238 48.2704 0.271038C47.842 -0.0662853 47.2459 -0.091654 46.7904 0.208059C46.335 0.507772 46.1224 1.06531 46.2627 1.59217C46.9151 4.0419 46.3501 6.62717 41.5317 11.9434C39.3668 14.0337 38.6806 17.2255 39.7951 20.0209C40.2212 21.0901 40.8317 22.0762 41.5989 22.9342C41.2923 24.8912 41.0517 26.7444 40.8857 28.5494C40.6 31.5348 40.5263 34.5367 40.6653 37.5326C39.5353 38.1452 38.4774 38.8824 37.5113 39.7302L31.368 13.4596C31.368 13.433 31.3427 13.414 31.3351 13.3899C31.3144 13.3054 31.2847 13.2235 31.2464 13.1454L24.9713 1.5567C24.3433 0.396784 23.0167 -0.199265 21.7324 0.10152C20.4481 0.402305 19.5241 1.52549 19.4765 2.84364L19.0003 16.0106C19.0006 16.1057 19.0112 16.2004 19.0319 16.2931C19.0319 16.3134 19.0319 16.3311 19.0319 16.3501L25.2994 43.0983C24.3107 43.142 23.3292 43.2884 22.3709 43.5353L15.4764 26.885C14.9235 25.6122 13.4572 25.0116 12.1704 25.5309L1.63298 29.8933C0.34335 30.4316 -0.269522 31.9103 0.261185 33.2031L9.61172 55.7599C4.13149 56.0476 -0.122397 60.6481 0.0190524 66.134C0.160501 71.62 4.64581 75.995 10.1336 76H65.8669C69.4872 75.9475 72.8045 73.9676 74.5692 70.8061C76.3339 67.6445 76.2779 63.7817 74.4222 60.6727C72.5666 57.5637 69.1934 55.6808 65.5731 55.7333ZM64.2823 22.9469L69.5922 19.6333L67.7125 24.173C67.4445 24.8194 67.7513 25.5606 68.3977 25.8286C69.0441 26.0965 69.7853 25.7897 70.0533 25.1433L71.933 20.6036L73.3403 26.7C71.8346 28.5369 70.5978 30.5785 69.6669 32.7636C68.3463 33.3757 66.8298 33.4075 65.4847 32.8512C64.1397 32.2949 63.0886 31.2012 62.5863 29.835C63.4759 27.6312 64.047 25.3118 64.2823 22.9469ZM61.369 32.8915C62.207 33.916 63.2944 34.7077 64.5268 35.1905C65.5064 35.6118 66.56 35.834 67.6263 35.8441C67.8829 35.8432 68.1392 35.8275 68.3939 35.7972L64.352 45.5506C63.1417 42.8821 61.2694 40.5673 58.9129 38.8258L61.369 32.8915ZM44.0157 23.845L50.3794 24.2338C50.4187 25.4169 50.4047 26.6405 50.3655 27.8831C48.2455 28.0346 46.115 27.9317 44.0195 27.5766C43.8599 27.5538 43.7041 27.536 43.5457 27.5145C43.6724 26.3213 43.8269 25.1129 44.0131 23.845H44.0157ZM43.4115 13.6445C46.7745 9.93444 48.5174 7.08064 48.9227 4.39784C51.34 6.885 52.9357 10.0542 53.4941 13.4773C53.7601 16.4573 52.8388 19.4217 50.9304 21.7258C48.4283 21.5738 45.9537 21.4218 43.5065 21.2698C42.4549 20.2868 41.85 18.9173 41.8316 17.478C41.8132 16.0386 42.3829 14.6541 43.4089 13.6445H43.4115ZM43.3152 30.039L43.6825 30.0871C45.3147 30.3395 46.9623 30.4796 48.6137 30.5064C49.1381 30.5064 49.6903 30.4646 50.2439 30.4215C50.1286 32.0517 49.9399 33.7541 49.7005 35.5135C49.3876 35.497 49.0811 35.4666 48.7669 35.4666C46.8545 35.4701 44.9565 35.7968 43.1531 36.4331C43.0946 34.3004 43.1479 32.1661 43.3127 30.039H43.3152ZM33.5175 44.8514L29.8936 29.4145C29.7242 28.7448 29.0494 28.3343 28.3768 28.4919C27.7041 28.6494 27.2818 29.3168 27.4274 29.9921L30.684 43.8862C29.7886 43.566 28.8636 43.3356 27.9227 43.1984L22.3633 19.4737C23.1421 19.8283 23.9877 20.0123 24.8434 20.0133C24.9232 20.0133 25.0081 20.0019 25.0891 19.9981L25.9847 23.8222C26.0812 24.2698 26.4117 24.6304 26.8492 24.7655C27.2867 24.9006 27.7631 24.789 28.0951 24.4737C28.4271 24.1584 28.5632 23.6885 28.4509 23.2446L27.5541 19.418C28.4135 19.0375 29.1715 18.4605 29.7669 17.7333L35.4188 41.9C34.6848 42.8155 34.0477 43.8046 33.5175 44.8514ZM25.7782 17.3647C24.1582 17.6789 22.5042 17.0166 21.5488 15.6712L21.7097 11.21C22.1504 11.2923 22.5976 11.3347 23.046 11.3366C23.479 11.3385 23.9109 11.2904 24.3329 11.1935C25.1874 10.9691 25.9867 10.5716 26.6813 10.0256L28.8144 13.9624C28.5602 15.5958 27.3719 16.9284 25.7782 17.3672V17.3647ZM22.3088 2.5675C22.4813 2.52754 22.6594 2.60726 22.7445 2.76257L25.4603 7.78491C24.9704 8.2281 24.3854 8.55309 23.7503 8.73491C23.1011 8.85405 22.4333 8.82242 21.7983 8.64244L22.0048 2.93484C22.0117 2.75784 22.1362 2.60737 22.3088 2.5675ZM13.1419 27.8666L14.1097 30.2049L9.42299 32.1454C8.86738 32.3788 8.55307 32.9712 8.67142 33.5621C8.78978 34.153 9.30804 34.5787 9.91065 34.58C10.0771 34.5796 10.2418 34.5469 10.3958 34.4837L15.0825 32.5419L16.0515 34.8827L13.7069 35.8542C13.1481 36.0855 12.8307 36.6795 12.949 37.2726C13.0674 37.8656 13.5885 38.2923 14.1933 38.2913C14.3592 38.2907 14.5235 38.258 14.6771 38.195L17.0217 37.2235L17.9907 39.5643L13.3003 41.5086C12.7415 41.7399 12.4241 42.3339 12.5424 42.927C12.6608 43.52 13.1819 43.9467 13.7867 43.9457C13.9527 43.9453 14.117 43.9126 14.2705 43.8494L18.9572 41.9089L19.9819 44.3827C15.8544 46.2667 12.8276 49.9506 11.7803 54.3653L2.59945 32.229L13.1419 27.8666ZM65.8669 73.4666H10.1336C5.93622 73.4666 2.53358 70.064 2.53358 65.8666C2.53358 61.6693 5.93622 58.2666 10.1336 58.2666C10.8675 58.2642 11.5978 58.3701 12.3009 58.5808C12.6807 58.6955 13.0923 58.6256 13.4129 58.392C13.7336 58.1584 13.9263 57.7881 13.9336 57.3914C14.0237 52.8771 16.6333 48.7931 20.6921 46.8148C24.7508 44.8364 29.5754 45.2966 33.1869 48.0066C33.5061 48.2442 33.9183 48.318 34.3 48.2059C34.6817 48.0939 34.9886 47.809 35.1287 47.4366C37.6034 40.8413 44.443 36.9619 51.3736 38.2224C58.3042 39.483 63.3397 45.5223 63.3336 52.5666C63.3361 54.0152 63.1204 55.456 62.6939 56.8404C62.5608 57.2711 62.6666 57.7401 62.9718 58.0719C63.277 58.4037 63.7356 58.5483 64.1759 58.4516C64.7313 58.3293 65.2982 58.2673 65.8669 58.2666C70.0643 58.2666 73.4669 61.6693 73.4669 65.8666C73.4669 70.064 70.0643 73.4666 65.8669 73.4666Z" fill="#333951"/>
<path d="M49.0013 19.8866C49.3988 19.8881 49.7741 19.7028 50.0146 19.3863C51.596 17.2459 52.2071 14.5404 51.6993 11.9281C51.5912 11.4815 51.2498 11.1284 50.807 11.0054C50.3642 10.8825 49.8895 11.009 49.5667 11.336C49.2438 11.6631 49.1234 12.1393 49.2521 12.5805C49.5553 14.4367 49.1028 16.3371 47.9955 17.8574C47.7077 18.2412 47.6614 18.7548 47.8759 19.1839C48.0905 19.613 48.5291 19.8841 49.0089 19.8841L49.0013 19.8866Z" fill="#FF2A2A"/>
<path d="M47.3356 58.2665C46.3937 58.2694 45.4647 58.4859 44.6186 58.8998C42.3399 55.7819 38.0853 54.8685 34.7276 56.7764C31.37 58.6844 29.9771 62.8071 31.4896 66.3605C31.6886 66.8276 32.1472 67.1307 32.6549 67.1306C32.8256 67.131 32.9946 67.0966 33.1514 67.0293C33.4605 66.8976 33.7046 66.6486 33.83 66.3369C33.9555 66.0252 33.9519 65.6765 33.8202 65.3674C33.5445 64.7247 33.4023 64.0326 33.4022 63.3332C33.4022 60.5349 35.6707 58.2665 38.4689 58.2665C40.4342 58.2567 42.2241 59.3955 43.0479 61.1798C43.0753 61.2211 43.1049 61.2608 43.1366 61.2989C43.1566 61.3423 43.179 61.3846 43.2037 61.4256C43.2265 61.4534 43.2594 61.4661 43.2848 61.4927C43.3442 61.5544 43.41 61.6096 43.4811 61.6574C43.5444 61.7061 43.6123 61.7485 43.6838 61.784C43.7573 61.8149 43.8337 61.8386 43.9118 61.855C43.9897 61.8754 44.0695 61.8877 44.1499 61.8917C44.3145 61.8904 44.4778 61.863 44.6338 61.8106C44.6675 61.8044 44.7009 61.7964 44.7338 61.7866C44.775 61.76 44.8143 61.7308 44.8516 61.6992C44.8972 61.6789 44.9416 61.6561 44.9846 61.6308C45.65 61.0927 46.4799 60.7994 47.3356 60.7998C48.8166 60.8022 50.1613 61.6649 50.7809 63.0102C51.0712 63.6468 51.8226 63.9275 52.4592 63.6372C53.0958 63.3469 53.3766 62.5954 53.0862 61.9588C52.0548 59.7107 49.809 58.2687 47.3356 58.2665Z" fill="#FF2A2A"/>
<path d="M22.3998 49.4645C22.2085 49.5266 17.7334 51.0744 17.7334 55.7332C17.7334 56.4328 18.3005 56.9999 19.0001 56.9999C19.6996 56.9999 20.2667 56.4328 20.2667 55.7332C20.3701 53.9663 21.5327 52.4376 23.2079 51.8661C23.8725 51.6429 24.2304 50.9233 24.0072 50.2587C23.784 49.5941 23.0644 49.2363 22.3998 49.4594V49.4645Z" fill="#FF2A2A"/>
<path d="M40.2257 48.0952C40.3263 48.1207 40.4297 48.1335 40.5335 48.1332C41.114 48.1326 41.6199 47.7375 41.7609 47.1743C42.3439 44.809 44.4378 43.1265 46.8732 43.0665C47.5728 43.0648 48.1384 42.4963 48.1367 41.7967C48.1349 41.0971 47.5664 40.5315 46.8669 40.5332C43.2666 40.581 40.1554 43.0601 39.3049 46.5587C39.1349 47.2373 39.5472 47.9252 40.2257 48.0952Z" fill="#FF2A2A"/>
</g>
<defs>
<clipPath id="clip0">
<rect width="76" height="76" fill="white"/>
</clipPath>
</defs>
</svg>
