<svg width="70" height="70" viewBox="0 0 70 70" fill="none" xmlns="http://www.w3.org/2000/svg">
<path d="M44.6555 18.192C46.5402 18.192 48.0735 16.6587 48.0735 14.7741C48.0735 12.8894 46.5402 11.356 44.6555 11.356C42.7709 11.356 41.2376 12.8894 41.2376 14.7741C41.2376 15.5438 41.4935 16.2547 41.9246 16.8268L36.3087 24.6746C35.9736 24.5645 35.6161 24.5041 35.2445 24.5041C34.3464 24.5041 33.5285 24.8528 32.918 25.4213L29.1747 23.2972C29.2246 23.0654 29.2514 22.825 29.2514 22.5785C29.2514 20.6938 27.7181 19.1605 25.8335 19.1605C23.9488 19.1605 22.4155 20.6938 22.4155 22.5785C22.4155 22.825 22.4423 23.0654 22.4922 23.2972L18.749 25.4213C18.1384 24.8528 17.3205 24.5042 16.4224 24.5042C14.5378 24.5042 13.0045 26.0376 13.0045 27.9223C13.0045 29.807 14.5378 31.3404 16.4224 31.3404C18.3071 31.3404 19.8404 29.807 19.8404 27.9223C19.8404 27.6758 19.8136 27.4354 19.7637 27.2036L23.5069 25.0795C24.1175 25.648 24.9354 25.9968 25.8335 25.9968C26.7316 25.9968 27.5493 25.648 28.16 25.0796L31.9032 27.2037C31.8533 27.4356 31.8265 27.6759 31.8265 27.9224C31.8265 29.8071 33.3598 31.3405 35.2445 31.3405C37.1293 31.3405 38.6626 29.8071 38.6626 27.9224C38.6626 27.1526 38.4065 26.4415 37.9755 25.8695L43.5913 18.0217C43.9263 18.1316 44.2839 18.192 44.6555 18.192ZM44.6555 13.4067C45.4094 13.4067 46.0227 14.0201 46.0227 14.7741C46.0227 15.5279 45.4094 16.1412 44.6555 16.1412C43.9017 16.1412 43.2883 15.5279 43.2883 14.7741C43.2882 14.0201 43.9015 13.4067 44.6555 13.4067ZM16.422 29.2894C15.6681 29.2894 15.0548 28.676 15.0548 27.922C15.0548 27.168 15.6681 26.5547 16.422 26.5547C17.1759 26.5547 17.7892 27.168 17.7892 27.922C17.7892 28.676 17.1759 29.2894 16.422 29.2894ZM25.8332 23.9457C25.0793 23.9457 24.466 23.3324 24.466 22.5784C24.466 21.8245 25.0793 21.2112 25.8332 21.2112C26.5871 21.2112 27.2004 21.8245 27.2004 22.5784C27.2005 23.3324 26.5871 23.9457 25.8332 23.9457ZM35.2444 29.2894C34.4905 29.2894 33.8772 28.676 33.8772 27.922C33.8772 27.168 34.4905 26.5547 35.2444 26.5547C35.9984 26.5547 36.6117 27.168 36.6117 27.922C36.6117 28.676 35.9982 29.2894 35.2444 29.2894Z" fill="white"/>
<path d="M57.2573 51.5382H50.0814H10.996H2.90049C2.43195 51.5382 2.05078 51.157 2.05078 50.6885V8.38511C2.05078 7.91657 2.43195 7.5354 2.90049 7.5354H7.73432C8.30061 7.5354 8.75971 7.07644 8.75971 6.51001C8.75971 5.94358 8.30061 5.48462 7.73432 5.48462H2.90049C1.30115 5.48462 0 6.78577 0 8.38511V50.6885C0 52.2878 1.30115 53.589 2.90049 53.589H9.97062V55.8457C9.97062 57.1312 11.0165 58.1771 12.3021 58.1771H22.5661L17.7345 67.6104C17.4763 68.1145 17.6755 68.7324 18.1796 68.9906C18.3292 69.0673 18.4889 69.1035 18.6462 69.1035C19.0188 69.1035 19.3782 68.8998 19.5597 68.5453L24.8702 58.1771H36.2072L41.5178 68.5453C41.6994 68.8998 42.0587 69.1035 42.4312 69.1035C42.5886 69.1035 42.7483 69.067 42.8978 68.9906C43.4019 68.7324 43.6012 68.1145 43.343 67.6104L38.5113 58.1771H48.7754C50.0609 58.1771 51.1068 57.1314 51.1068 55.8457V53.589H57.2573C57.8236 53.589 58.2827 53.13 58.2827 52.5636C58.2827 51.9972 57.8236 51.5382 57.2573 51.5382ZM49.0561 55.8457C49.0561 56.0004 48.9301 56.1263 48.7754 56.1263H12.3021C12.1473 56.1263 12.0214 56.0004 12.0214 55.8457V53.589H49.0561V55.8457Z" fill="white"/>
<path d="M42.5754 42.6333C42.0092 42.6333 41.55 43.0923 41.55 43.6587V46.6688C41.55 47.2353 42.0092 47.6942 42.5754 47.6942H46.7354C47.3017 47.6942 47.7608 47.2353 47.7608 46.6688C47.7608 46.1024 47.3017 45.6434 46.7354 45.6434H43.6008V43.6587C43.6008 43.0923 43.1417 42.6333 42.5754 42.6333Z" fill="white"/>
<path d="M33.1643 36.5826C32.598 36.5826 32.1389 37.0416 32.1389 37.608V46.6687C32.1389 47.2351 32.598 47.694 33.1643 47.694H37.3242C37.8905 47.694 38.3496 47.2351 38.3496 46.6687V37.608C38.3496 37.0416 37.8905 36.5826 37.3242 36.5826H33.1643ZM36.2989 45.6434H34.1897V38.6336H36.2989V45.6434Z" fill="white"/>
<path d="M14.3421 36.5826C13.7758 36.5826 13.3167 37.0416 13.3167 37.608V46.6687C13.3167 47.2351 13.7758 47.694 14.3421 47.694H18.502C19.0683 47.694 19.5274 47.2351 19.5274 46.6687V37.608C19.5274 37.0416 19.0683 36.5826 18.502 36.5826H14.3421ZM17.4766 45.6434H15.3675V38.6336H17.4766V45.6434Z" fill="white"/>
<path d="M23.7531 31.3424C23.1868 31.3424 22.7277 31.8014 22.7277 32.3678V46.6687C22.7277 47.2351 23.1868 47.6941 23.7531 47.6941H27.9131C28.4793 47.6941 28.9384 47.2351 28.9384 46.6687V32.3678C28.9384 31.8014 28.4793 31.3424 27.9131 31.3424H23.7531ZM26.8878 45.6433H24.7786V33.3932H26.8878V45.6433Z" fill="white"/>
<path d="M69.4771 52.5026L63.5945 42.3135C65.0848 40.7249 66.1701 38.7839 66.7498 36.6205C67.6763 33.1628 67.2008 29.5511 65.4109 26.4508C61.7159 20.0506 53.5031 17.8504 47.1033 21.5452C40.7034 25.24 38.5029 33.4529 42.1978 39.8528C43.9878 42.953 46.8779 45.1706 50.3356 46.0973C51.4903 46.4067 52.6619 46.5597 53.826 46.5597C54.8435 46.5597 55.8551 46.4427 56.8444 46.2111L62.7258 56.4004C63.4467 57.6496 64.7594 58.3487 66.1078 58.3485C66.7685 58.3485 67.4379 58.1805 68.0503 57.8272C69.2528 57.1331 70 55.8388 70 54.4495C70 53.7687 69.8193 53.0957 69.4771 52.5026ZM50.8664 44.1164C47.9377 43.3316 45.4898 41.4532 43.9737 38.8274C40.8442 33.4068 42.7081 26.4508 48.1286 23.3212C49.9118 22.2917 51.8604 21.8028 53.7852 21.8028C57.711 21.8028 61.5348 23.8389 63.6348 27.4762C65.1507 30.102 65.5535 33.161 64.7687 36.0898C63.984 39.0186 62.1056 41.4662 59.4798 42.9823C56.8541 44.4984 53.7951 44.9009 50.8664 44.1164ZM67.0253 56.051C66.143 56.5604 65.011 56.2571 64.502 55.3753L58.8435 45.572C59.4106 45.3406 59.9659 45.0699 60.5054 44.7584C61.0453 44.4467 61.5567 44.0997 62.0408 43.724L67.7009 53.5277C67.8634 53.8095 67.9492 54.1283 67.9492 54.4496C67.9492 55.1083 67.5951 55.722 67.0253 56.051Z" fill="white"/>
<path d="M63.1014 36.0406C63.8254 33.7087 63.653 31.2123 62.6159 29.0111C62.3745 28.4987 61.7636 28.2791 61.2514 28.5204C60.7389 28.7618 60.5194 29.3727 60.7608 29.885C61.5788 31.6213 61.7146 33.5913 61.1429 35.4324C60.5682 37.2835 59.3265 38.8371 57.6466 39.8069C55.869 40.8334 53.7979 41.1058 51.8153 40.5746C49.8326 40.0433 48.1753 38.7717 47.1491 36.9941C45.0304 33.3244 46.2923 28.6153 49.9619 26.4966C52.6451 24.9477 55.9748 25.1547 58.4455 27.0239C58.8972 27.3657 59.5402 27.2767 59.8818 26.825C60.2235 26.3734 60.1345 25.7302 59.6828 25.3886C56.5532 23.0205 52.3348 22.7584 48.9364 24.7204C46.6844 26.0206 45.0734 28.1201 44.4004 30.6319C43.7273 33.1437 44.0728 35.7673 45.373 38.0193C46.6732 40.2715 48.7726 41.8823 51.2844 42.5555C52.1232 42.7803 52.9744 42.8915 53.82 42.8915C55.5068 42.8915 57.1719 42.449 58.6719 41.5829C60.8002 40.3544 62.3733 38.3862 63.1014 36.0406Z" fill="white"/>
<path d="M11.8359 7.5354H25.8731H35.2043H58.1768C58.6454 7.5354 59.0265 7.91657 59.0265 8.3851V18.1347C59.0265 18.7011 59.4856 19.16 60.0519 19.16C60.6182 19.16 61.0773 18.7011 61.0773 18.1347V8.3851C61.0773 6.78577 59.7762 5.48461 58.1768 5.48461H36.2298V3.46911C36.2298 2.05065 35.0757 0.896606 33.6571 0.896606H27.4203C26.0019 0.896606 24.8477 2.05065 24.8477 3.46911V5.48461H11.8359C11.2696 5.48461 10.8105 5.94358 10.8105 6.51C10.8105 7.07643 11.2696 7.5354 11.8359 7.5354ZM26.8985 3.46911C26.8985 3.18145 27.1325 2.94739 27.4203 2.94739H33.6571C33.9448 2.94739 34.179 3.18145 34.179 3.46911V5.48461H26.8986V3.46911H26.8985Z" fill="white"/>
</svg>
