<svg width="76" height="76" viewBox="0 0 76 76" fill="none" xmlns="http://www.w3.org/2000/svg">
<g clip-path="url(#clip0)">
<path d="M10.1336 60.8H45.6002C48.3983 60.8 50.6669 58.5314 50.6669 55.7333V12.6667C50.6669 12.3308 50.5333 12.0086 50.2958 11.7711L38.8958 0.371094C38.6583 0.133594 38.3361 0 38.0002 0H10.1336C7.33551 0 5.06689 2.26862 5.06689 5.06667V55.7333C5.06689 58.5314 7.33551 60.8 10.1336 60.8ZM7.60023 5.06667C7.60023 3.66764 8.73454 2.53333 10.1336 2.53333H37.4757L48.1336 13.1911V55.7333C48.1336 57.1324 46.9993 58.2667 45.6002 58.2667H10.1336C8.73454 58.2667 7.60023 57.1324 7.60023 55.7333V5.06667Z" fill="#333951"/>
<path d="M12.6666 54.4668H43.0666C43.7661 54.4668 44.3332 53.8996 44.3332 53.2001V27.8668C44.3332 27.1673 43.7661 26.6001 43.0666 26.6001H12.6666C11.9671 26.6001 11.3999 27.1673 11.3999 27.8668V53.2001C11.3999 53.8996 11.9671 54.4668 12.6666 54.4668ZM13.9332 44.3334H18.9999V51.9334H13.9332V44.3334ZM29.1332 35.4668V29.1334H34.1999V41.8001H13.9332V36.7334H27.8666C28.5661 36.7334 29.1332 36.1663 29.1332 35.4668ZM26.5999 44.3334V51.9334H21.5332V44.3334H26.5999ZM29.1332 44.3334H34.1999V51.9334H29.1332V44.3334ZM41.7999 51.9334H36.7332V29.1334H41.7999V51.9334ZM26.5999 29.1334V34.2001H13.9332V29.1334H26.5999Z" fill="#FF2A2A"/>
<path d="M11.3999 6.33325H13.9332V8.86659H11.3999V6.33325Z" fill="#333951"/>
<path d="M16.4668 6.33325H25.3335V8.86659H16.4668V6.33325Z" fill="#333951"/>
<path d="M11.3999 11.3999H29.1332V13.9332H11.3999V11.3999Z" fill="#333951"/>
<path d="M68.4002 28.3911V70.9333C68.4002 72.3323 67.2659 73.4666 65.8668 73.4666H30.4002C29.0011 73.4666 27.8668 72.3323 27.8668 70.9333V63.3333H25.3335V70.9333C25.3335 73.7313 27.6021 76 30.4002 76H65.8668C68.6649 76 70.9335 73.7313 70.9335 70.9333V27.8666C70.9335 27.5308 70.7999 27.2085 70.5624 26.971L59.1624 15.571C58.9249 15.3335 58.6027 15.2 58.2668 15.2H53.2002V17.7333H57.7424L68.4002 28.3911Z" fill="#333951"/>
<path d="M55.7332 67.1334H49.3998V63.3334H46.8665V67.1334H41.7998V63.3334H39.2665V67.1334H34.1998V63.3334H31.6665V68.4001C31.6665 69.0996 32.2337 69.6667 32.9332 69.6667H63.3332C64.0327 69.6667 64.5998 69.0996 64.5998 68.4001V43.0667C64.5998 42.3672 64.0327 41.8 63.3332 41.8H53.1998V44.3334H55.7332V57.0001H53.1998V59.5334H55.7332V67.1334ZM62.0665 44.3334V67.1334H58.2665V44.3334H62.0665Z" fill="#FF2A2A"/>
<path d="M73.4668 41.8H76.0001V65.8667H73.4668V41.8Z" fill="#333951"/>
<path d="M73.4668 68.3999H76.0001V70.9332H73.4668V68.3999Z" fill="#333951"/>
<path d="M0 6.33325H2.53333V43.0666H0V6.33325Z" fill="#333951"/>
</g>
<defs>
<clipPath id="clip0">
<rect width="76" height="76" fill="white"/>
</clipPath>
</defs>
</svg>
