<svg width="21" height="21" viewBox="0 0 21 21" fill="none" xmlns="http://www.w3.org/2000/svg">
<g clip-path="url(#clip0)">
<path d="M19.1543 2.50195H1.84567C1.56156 2.50195 1.29557 2.5718 1.05493 2.68693L10.459 12.091L12.5667 10.0653C12.5667 10.0653 12.5669 10.0651 12.5669 10.065C12.567 10.0649 12.5671 10.0649 12.5671 10.0649L19.9453 2.6871C19.7046 2.57188 19.4385 2.50195 19.1543 2.50195Z" fill="#FF2A2A"/>
<path d="M20.8153 3.55721L13.8721 10.5001L20.8151 17.4431C20.9302 17.2024 21.0001 16.9365 21.0001 16.6523V4.34766C21.0001 4.06371 20.9304 3.79776 20.8153 3.55721Z" fill="#FF2A2A"/>
<path d="M0.18498 3.55692C0.0698496 3.79755 0 4.06354 0 4.34766V16.6523C0 16.9363 0.0697676 17.2023 0.184816 17.4429L7.12806 10.5L0.18498 3.55692Z" fill="#FF2A2A"/>
<path d="M13.002 11.3701L10.894 13.3959C10.7738 13.5161 10.6164 13.5762 10.459 13.5762C10.3017 13.5762 10.1442 13.5161 10.0241 13.3959L7.99806 11.37L1.05469 18.3129C1.29537 18.4281 1.56152 18.498 1.84571 18.498H19.1543C19.4384 18.498 19.7044 18.4282 19.945 18.3131L13.002 11.3701Z" fill="#FF2A2A"/>
</g>
<defs>
<clipPath id="clip0">
<rect width="21" height="21" fill="white"/>
</clipPath>
</defs>
</svg>
