<svg width="76" height="76" viewBox="0 0 76 76" fill="none" xmlns="http://www.w3.org/2000/svg">
<path d="M59.3111 44.1183L49.0804 36.8106C48.4231 36.3412 47.5103 36.4934 47.0414 37.1502C46.5722 37.8072 46.7244 38.7199 47.3812 39.1891L55.9471 45.3076L47.3812 51.426C46.7245 51.8952 46.5722 52.808 47.0414 53.465C47.3267 53.8643 47.7759 54.0771 48.2319 54.0771C48.5259 54.0771 48.8227 53.9887 49.0802 53.8047L59.311 46.497C59.695 46.2225 59.923 45.7798 59.923 45.3077C59.923 44.8357 59.695 44.3926 59.3111 44.1183Z" fill="#FF2A2A"/>
<path d="M39.915 33.2711L33.2666 56.5417L36.0771 57.3447L42.7255 34.0741L39.915 33.2711Z" fill="#333951"/>
<path d="M28.6186 51.4262L20.0527 45.3077L28.6186 39.1893C29.2753 38.7201 29.4276 37.8073 28.9584 37.1503C28.489 36.4934 27.5766 36.3412 26.9194 36.8106L16.6887 44.1183C16.3047 44.3928 16.0767 44.8355 16.0767 45.3076C16.0767 45.7796 16.3047 46.2224 16.6887 46.4969L26.9194 53.8046C27.1771 53.9885 27.4737 54.077 27.7677 54.077C28.2237 54.077 28.6729 53.8641 28.9582 53.4648C29.4274 52.8081 29.2753 51.8954 28.6186 51.4262Z" fill="#FF2A2A"/>
<path d="M65.3611 20.5671L45.9989 0.447984C45.7233 0.161797 45.3431 0 44.9457 0H16.088C12.8584 0 10.231 2.62037 10.231 5.84116V70.1588C10.231 73.3796 12.8584 76 16.088 76H59.9124C63.1419 76 65.7694 73.3796 65.7694 70.1588V21.5806C65.7694 21.2027 65.6229 20.8394 65.3611 20.5671ZM45.3079 3.94562L61.2025 20.4615H45.3079V3.94562ZM62.8464 70.1588C62.8464 71.7679 61.5302 73.077 59.9124 73.077H16.088C14.4702 73.077 13.154 71.768 13.154 70.1588V5.84116C13.154 4.2321 14.4702 2.92303 16.088 2.92303H42.3847V21.923C42.3847 22.7302 43.0392 23.3845 43.8463 23.3845H62.8463V70.1588H62.8464Z" fill="#333951"/>
</svg>
