<svg width="76" height="76" viewBox="0 0 76 76" fill="none" xmlns="http://www.w3.org/2000/svg">
<g clip-path="url(#clip0)">
<path d="M59.4825 43.0271C50.3778 43.0416 43.0082 50.4316 43.0181 59.5357C43.0279 68.6398 50.4138 76.0141 59.5179 76.0094C68.6221 76.0042 76.0004 68.6224 76.0004 59.5183C75.9824 50.4072 68.5936 43.0294 59.4825 43.0271ZM59.4825 73.4718C51.779 73.4573 45.5453 67.2032 45.5551 59.5003C45.565 51.7973 51.815 45.5589 59.5179 45.5642C67.2209 45.5688 73.4628 51.8148 73.4633 59.5183C73.4471 67.2282 67.193 73.4706 59.4825 73.4718Z" fill="#FF2A2A"/>
<path d="M20.084 22.1924C19.674 22.3863 19.3988 22.7841 19.3622 23.2359C19.325 23.6877 19.5323 24.1249 19.9051 24.3828C20.2779 24.6406 20.7599 24.6801 21.1693 24.4861C22.7389 23.7393 24.416 23.2458 26.1395 23.0245C26.5918 22.9705 26.9809 22.6784 27.158 22.2586C27.3357 21.8393 27.2741 21.3568 26.9977 20.9944C26.7207 20.6326 26.2713 20.4468 25.8201 20.5078C23.8312 20.7633 21.8952 21.3318 20.084 22.1924Z" fill="#333951"/>
<path d="M10.7193 64.6814C10.8563 64.6819 10.9928 64.6605 11.1228 64.6175C11.4422 64.5106 11.7059 64.2813 11.8557 63.9799C12.0055 63.6785 12.0293 63.3295 11.9219 63.0107C11.4875 61.7088 11.2698 60.3447 11.2773 58.9725V55.7381C11.2773 55.0372 10.7094 54.4692 10.0091 54.4692C9.30816 54.4692 8.74024 55.0372 8.74024 55.7381V59.0486C8.73908 60.6693 9.00097 62.2796 9.51547 63.8161C9.6891 64.3335 10.174 64.6819 10.7193 64.6814Z" fill="#333951"/>
<path d="M15.3091 28.9713C15.9676 28.1827 16.6987 27.4574 17.4936 26.8058C18.0348 26.361 18.1132 25.5614 17.6684 25.0196C17.2236 24.4784 16.424 24.4 15.8822 24.8448C11.3667 28.581 8.74894 34.1342 8.74023 39.9952V50.6637C8.74023 51.3641 9.30815 51.932 10.0091 51.932C10.7094 51.932 11.2773 51.3641 11.2773 50.6637V39.9952C11.2808 35.9605 12.7087 32.0565 15.3091 28.9713Z" fill="#333951"/>
<path d="M46.5925 38.9547C46.654 38.9553 46.7156 38.9506 46.776 38.9407C47.4693 38.8397 47.9496 38.1957 47.8479 37.5024C46.6337 28.807 39.8802 21.9258 31.2087 20.5484C30.5148 20.4491 29.8725 20.931 29.7732 21.6244C29.6739 22.3183 30.1559 22.9606 30.8498 23.0599C38.4105 24.2741 44.2906 30.2849 45.3388 37.8705C45.4299 38.4924 45.9636 38.9541 46.5925 38.9547Z" fill="#333951"/>
<path d="M37.9015 39.7032C37.7226 34.5785 33.5306 30.5084 28.403 30.4811C27.8531 30.4776 27.3044 30.5264 26.7637 30.6269C24.5466 31.0142 22.5398 32.1791 21.1037 33.9125C19.8099 35.4275 19.0457 37.3229 18.9267 39.3112C18.8976 39.5382 18.8849 39.7664 18.8889 39.9952V45.97C18.8889 48.3433 18.8889 51.2125 18.9017 54.2409C18.893 58.7395 20.908 63.0036 24.3893 65.853L26.1197 67.2688C34.7518 74.3474 34.7709 74.3602 34.8726 74.4287C35.4393 74.8044 36.2024 74.6616 36.5949 74.1064C36.995 73.5513 36.8829 72.779 36.3417 72.3609C36.1019 72.1745 32.0283 68.8378 27.7265 65.3066L25.9926 63.8909C23.0815 61.5013 21.4057 57.9242 21.4335 54.1584C21.426 51.2067 21.426 48.341 21.426 45.97V39.9952C21.4219 39.8536 21.43 39.7119 21.4486 39.5713C21.5264 38.0882 22.0891 36.6719 23.0496 35.5401C24.1076 34.262 25.5878 33.4044 27.2231 33.1221C27.6121 33.0495 28.007 33.0147 28.403 33.0182C32.1729 33.0368 35.2512 36.0366 35.3673 39.8048C35.3638 39.8687 35.3679 39.9325 35.3801 39.9952V46.4648C35.3795 49.093 36.0729 51.6748 37.3905 53.9494C37.6065 54.3622 38.0315 54.623 38.4973 54.6293C38.9636 54.6357 39.395 54.386 39.6221 53.9795C39.8491 53.5725 39.8352 53.0737 39.5849 52.6805C38.4798 50.7642 37.9044 48.5884 37.9172 46.3759V39.9952C37.9177 39.8977 37.9125 39.8001 37.9015 39.7032Z" fill="#333951"/>
<path d="M38.3979 70.6269C39.0012 70.8308 39.662 70.5555 39.9425 69.9841C40.223 69.4127 40.0366 68.7211 39.5064 68.3686C39.3949 68.2827 39.1133 68.0516 38.6905 67.7078L37.5361 66.774C37.5007 66.7357 37.4618 66.7003 37.4211 66.6678C35.8608 65.3989 33.5909 63.5483 31.0782 61.4955C28.1811 59.1245 26.5041 55.5765 26.5116 51.8333V50.1563C26.5 47.6279 26.5 45.3359 26.5 43.5596V39.9953C26.4977 38.9918 27.2747 38.1591 28.2758 38.0923C28.7746 38.0656 29.2606 38.2532 29.612 38.6086C30.0504 39.0214 30.3012 39.5957 30.3053 40.1979V42.2153C30.3053 43.7994 30.3053 46.1059 30.2931 48.7858V48.9333C30.3111 53.3936 32.3099 57.6153 35.7476 60.4566C36.2714 60.8916 36.783 61.3132 37.2545 61.6958C37.7992 62.1378 38.5982 62.0541 39.0395 61.5094C39.4809 60.9653 39.3973 60.1663 38.8531 59.725C38.3863 59.344 37.8828 58.9317 37.3648 58.5032C34.5072 56.1415 32.8453 52.6329 32.8273 48.9258V48.78C32.84 46.1158 32.84 43.8017 32.84 42.2153V40.1979C32.8366 38.8983 32.3006 37.6568 31.3569 36.7625C30.494 35.9316 29.3251 35.4955 28.1289 35.5576C27.0459 35.6255 26.0256 36.086 25.2579 36.8531C24.4234 37.6853 23.9571 38.8165 23.9629 39.9953V43.5596C23.9629 45.3359 23.9629 47.6355 23.9757 50.1563V51.8304C23.9688 56.3354 25.989 60.6047 29.4772 63.4554C31.9283 65.4622 34.1507 67.2752 35.7081 68.5399C35.7447 68.5794 35.7842 68.6154 35.8266 68.6479L37.0948 69.674C38.1569 70.5456 38.1569 70.5456 38.3979 70.6269Z" fill="#333951"/>
<path d="M10.5047 6.78464C10.7044 6.78406 10.9013 6.73587 11.0795 6.6447C18.7778 2.72675 27.5945 1.59149 36.0344 3.43171C36.4768 3.52869 36.9379 3.38235 37.2434 3.04787C37.5494 2.71281 37.6528 2.24012 37.5157 1.80808C37.3787 1.37605 37.0215 1.05028 36.5785 0.95272C27.5649 -1.01177 18.1489 0.201301 9.92745 4.38579C9.40482 4.65175 9.13306 5.24232 9.2701 5.81256C9.40715 6.3828 9.91816 6.78523 10.5047 6.78464Z" fill="#333951"/>
<path d="M40.7331 4.78134C42.323 5.35506 43.8712 6.03854 45.3659 6.82771C45.7666 7.03966 46.2503 7.02224 46.6341 6.78125C47.018 6.54026 47.2444 6.11287 47.2276 5.65993C47.2113 5.2064 46.9541 4.79701 46.5534 4.58506C44.9536 3.74073 43.2974 3.00905 41.596 2.39526C41.168 2.23382 40.6861 2.3157 40.3347 2.60895C39.984 2.9022 39.8179 3.36212 39.901 3.81157C39.9834 4.26161 40.3022 4.6321 40.7348 4.78134H40.7331Z" fill="#333951"/>
<path d="M4.13613 18.0362C4.48281 18.0368 4.81497 17.8945 5.05421 17.6431C13.2002 9.09584 25.3669 5.68657 36.7683 8.75555C37.2096 8.88969 37.6893 8.77355 38.0203 8.45243C38.3513 8.1313 38.4819 7.65513 38.3612 7.20974C38.2404 6.76435 37.8873 6.41999 37.439 6.31024C25.1381 2.99215 12.0075 6.66853 3.21747 15.8911C2.86615 16.2587 2.76802 16.7999 2.96836 17.2674C3.16811 17.7343 3.62803 18.0368 4.13613 18.0362Z" fill="#333951"/>
<path d="M42.3795 8.03266C42.2158 7.99549 42.0509 7.96065 41.886 7.92871H41.8743C41.8052 7.93626 41.7373 7.9502 41.6705 7.96936C41.5799 7.97807 41.4905 7.99607 41.404 8.02394C41.3198 8.06401 41.2402 8.11395 41.1665 8.17202C41.1067 8.20628 41.0492 8.24519 40.9957 8.28874C40.9185 8.37062 40.8535 8.46237 40.8012 8.56167C40.7693 8.60174 40.7402 8.64413 40.7141 8.68884V8.69871C40.6891 8.77711 40.6717 8.85782 40.6618 8.9397C40.6363 9.02216 40.6195 9.10752 40.6113 9.19347V9.20218C40.6183 9.25502 40.6287 9.30728 40.6427 9.35838C40.6502 9.46697 40.6723 9.57382 40.7077 9.6766C40.7426 9.75093 40.785 9.8212 40.8343 9.88624C40.8703 9.95592 40.9127 10.0221 40.9615 10.0843C41.0439 10.1603 41.1369 10.2248 41.2367 10.277C41.2762 10.309 41.3186 10.338 41.3633 10.363C46.3114 12.5545 50.6405 15.9359 53.965 20.2058C54.2397 20.5745 54.692 20.7661 55.1479 20.7069C55.6043 20.6471 55.9916 20.3451 56.1618 19.9177C56.3319 19.4904 56.257 19.0043 55.9667 18.6478C52.3849 14.0452 47.719 10.4013 42.3859 8.0402L42.3795 8.03266Z" fill="#333951"/>
<path d="M12.4097 17.9352C14.8579 16.1373 17.5941 14.7692 20.5005 13.8883C20.943 13.7634 21.2833 13.4098 21.3901 12.9627C21.497 12.5161 21.3541 12.0463 21.0167 11.7345C20.6788 11.4232 20.1991 11.3187 19.7624 11.4616C16.5808 12.4255 13.5856 13.9231 10.9051 15.8899C10.3406 16.3057 10.2199 17.1001 10.6351 17.6645C11.0508 18.2296 11.8452 18.3504 12.4097 17.9352Z" fill="#333951"/>
<path d="M0.875019 32.3598C1.54166 32.5764 2.25707 32.2117 2.47367 31.5451C3.69894 27.7508 5.75576 24.2777 8.49548 21.3806C8.97572 20.8702 8.95191 20.0665 8.44148 19.5863C7.93105 19.1054 7.12795 19.1298 6.64713 19.6403C3.65248 22.812 1.40287 26.6115 0.0620454 30.7629C-0.153393 31.4284 0.210123 32.1426 0.875019 32.3598Z" fill="#333951"/>
<path d="M56.7538 38.0924C57.1156 38.0947 57.4611 37.942 57.7032 37.6731C57.9454 37.4048 58.0615 37.0454 58.022 36.6854C56.3746 21.5791 43.5987 10.1487 28.4031 10.1842C27.2974 10.1859 26.1929 10.248 25.0943 10.3694C24.6378 10.4112 24.2395 10.6958 24.0519 11.1144C23.8643 11.5325 23.9172 12.0197 24.1901 12.3879C24.463 12.7561 24.9137 12.9489 25.3683 12.8914C26.3764 12.7799 27.3892 12.723 28.4031 12.7212C42.3014 12.6904 53.9856 23.1464 55.4925 36.9635C55.5639 37.6058 56.1069 38.0924 56.7538 38.0924Z" fill="#333951"/>
<path d="M51.7806 39.2468H51.8898C52.2254 39.2178 52.5355 39.0575 52.7521 38.7997C52.9687 38.5424 53.0744 38.2091 53.0454 37.8741C52.5797 32.498 50.3904 27.4163 46.8029 23.3845C46.3343 22.8706 45.5381 22.8305 45.0196 23.2945C44.501 23.7591 44.4534 24.554 44.9127 25.0773C48.1339 28.6979 50.1001 33.2616 50.5188 38.0895C50.5763 38.7439 51.1239 39.2462 51.7806 39.2468Z" fill="#333951"/>
<path d="M8.19602 30.8377C11.8718 22.6976 20.0753 17.5607 29.0029 17.8081C29.4559 17.8203 29.8815 17.5898 30.1184 17.2036C30.3559 16.8174 30.3687 16.3337 30.1527 15.9348C29.9367 15.5364 29.5244 15.2832 29.0714 15.271C19.1201 14.9772 9.97121 20.7058 5.88892 29.7861C4.59687 32.5955 3.85126 35.6256 3.69157 38.7137C3.67879 39.1324 3.66602 39.5639 3.66602 39.9953C3.66602 42.8326 3.66602 44.3528 3.68169 44.5125C3.72176 45.1815 4.27923 45.7018 4.94993 45.696H5.01323C5.70774 45.6583 6.2443 45.0717 6.21991 44.3767C6.20307 44.0416 6.20307 40.2044 6.20307 39.9953C6.20307 39.5894 6.21585 39.1847 6.2263 38.8217C6.37264 36.0599 7.0416 33.3504 8.19602 30.8377Z" fill="#333951"/>
<path d="M34.4324 18.5898C36.8504 19.2343 39.1366 20.2964 41.1888 21.7296C41.5604 21.9886 42.0424 22.0292 42.453 21.8364C42.8635 21.6437 43.1399 21.2465 43.1783 20.7953C43.216 20.3435 43.0104 19.9056 42.6388 19.6466C40.3381 18.0416 37.7737 16.8523 35.0625 16.1323L34.5933 16.0185C33.9133 15.8501 33.2251 16.2647 33.0567 16.9452C32.8877 17.6252 33.3029 18.3134 33.9829 18.4818L34.4324 18.5898Z" fill="#333951"/>
<path d="M40.581 45.8987C40.675 46.5932 41.3138 47.0798 42.0083 46.9863C42.7023 46.8922 43.1895 46.2535 43.0954 45.559C43.0245 45.0392 42.9897 44.5155 42.9914 43.9911V40.3374C43.1233 34.9166 40.2343 29.8709 35.4929 27.2392C30.7521 24.6081 24.9417 24.8264 20.4111 27.8054C18.5447 29.0242 16.9827 30.6548 15.8445 32.5717C14.5211 34.8219 13.8202 37.3845 13.815 39.9953V56.6386C13.8063 61.1367 15.8207 65.4002 19.3014 68.2496L22.1212 70.566C24.5149 72.5334 26.7436 74.3713 28.4386 75.7493C28.9816 76.1918 29.7806 76.1105 30.2231 75.5676C30.6662 75.0246 30.5849 74.2256 30.0419 73.7831C28.3498 72.4016 26.1222 70.5707 23.7321 68.6074L20.9186 66.2881C18.0099 63.9043 16.3323 60.3359 16.352 56.5753V39.9953C16.3573 37.8409 16.9345 35.7272 18.025 33.8696C20.4448 29.7971 25.016 27.5086 29.726 28.0127C35.929 28.7711 40.5583 34.0896 40.4544 40.3374V44.0544C40.455 44.6717 40.4974 45.2878 40.581 45.8987Z" fill="#333951"/>
<path d="M52 59.9231L57.0526 65L68 54" stroke="#FF2A2A" stroke-width="2.2"/>
</g>
<defs>
<clipPath id="clip0">
<rect width="76" height="76" fill="white"/>
</clipPath>
</defs>
</svg>
