<svg width="76" height="76" viewBox="0 0 76 76" fill="none" xmlns="http://www.w3.org/2000/svg">
<g clip-path="url(#clip0)">
<path d="M27.7515 62.52C26.5461 62.3333 25.307 62.2875 24.0731 62.3918C24.8274 56.2473 21.843 50.2298 16.421 47.1196C19.4129 42.0547 19.5405 35.8708 16.9771 30.7665C19.8901 28.9255 22.1208 26.1545 23.2828 22.9161C23.4967 22.3201 23.1882 21.6648 22.5927 21.4509C21.9967 21.2369 21.3415 21.546 21.1275 22.1415C20.0902 25.0273 18.0602 27.4759 15.408 29.0403C14.5997 29.517 14.2744 30.5578 14.7389 31.431C17.2125 36.0273 17.1185 41.7567 14.2014 46.3577C13.654 47.2129 13.9405 48.39 14.8717 48.8828C19.8814 51.528 22.6438 57.0417 21.7189 62.6759C21.5183 63.8252 22.5087 64.8845 23.7078 64.7349C24.9405 64.5778 26.1929 64.5975 27.4002 64.7836C27.4593 64.7929 27.519 64.7976 27.577 64.7976C28.1319 64.7976 28.6207 64.3928 28.7077 63.8275C28.8057 63.203 28.376 62.618 27.7515 62.52Z" fill="#FF2A2A"/>
<path d="M19.8031 12.078C19.9875 12.5158 20.4125 12.779 20.8596 12.779C21.676 12.779 22.2332 11.944 21.9148 11.1885L18.2486 2.4829C18.0033 1.89958 17.3318 1.6259 16.748 1.87175C16.1652 2.11702 15.8915 2.78905 16.1368 3.37236L19.8031 12.078Z" fill="#FF2A2A"/>
<path d="M0.801316 27.6767C12.8613 31.4804 12.0431 31.2473 12.2983 31.2473C13.5988 31.2473 13.8882 29.4017 12.6421 29.0085L1.49074 25.4913C0.886551 25.3011 0.243515 25.6362 0.0533293 26.2393C-0.136856 26.8429 0.197708 27.4865 0.801316 27.6767Z" fill="#FF2A2A"/>
<path d="M11.0217 47.4385L0.480933 54.9555C-0.425927 55.602 0.03794 57.0342 1.14716 57.0342C1.66669 57.0342 0.933784 57.447 12.3519 49.3039C12.8674 48.9368 12.9868 48.2213 12.6198 47.7058C12.2527 47.1915 11.5372 47.0709 11.0217 47.4385Z" fill="#FF2A2A"/>
<path d="M22.0761 65.4842C21.4656 65.3143 20.8347 65.6715 20.6654 66.2809L18.8319 72.8695C18.6296 73.5978 19.1769 74.3226 19.9365 74.3226C20.4381 74.3226 20.8985 73.9909 21.04 73.4836L22.8728 66.8949C23.0427 66.2855 22.6861 65.6541 22.0761 65.4842Z" fill="#FF2A2A"/>
<path d="M11.046 18.8776C18.4163 23.681 18.0011 23.4937 18.4685 23.4937C19.6032 23.4937 20.0485 22.0093 19.0947 21.3877L12.2967 16.9578C11.7667 16.6122 11.057 16.7618 10.7114 17.2918C10.3659 17.8223 10.5155 18.5321 11.046 18.8776Z" fill="#FF2A2A"/>
<path d="M6.72192 37.9646C6.08875 37.9646 5.57617 38.4778 5.57617 39.1104C5.57617 39.7435 6.08875 40.2561 6.72192 40.2561H12.7023C13.3349 40.2561 13.8481 39.7435 13.8481 39.1104C13.8481 38.4778 13.3349 37.9646 12.7023 37.9646H6.72192Z" fill="#FF2A2A"/>
<path d="M17.8698 54.0736C17.3595 53.7002 16.6423 53.8104 16.2683 54.3206L13.3593 58.2925C12.9853 58.8033 13.096 59.52 13.6063 59.894C14.1165 60.2674 14.8332 60.1572 15.2078 59.6464L18.1168 55.6751C18.4908 55.1643 18.38 54.4476 17.8698 54.0736Z" fill="#FF2A2A"/>
<path d="M74.8542 33.9255C75.4868 33.9255 76 33.4141 76 32.7797V32.4898C76 30.3172 74.2327 28.5487 72.0589 28.5487H58.4733C56.034 25.5301 52.3978 23.5152 48.2932 23.231C47.1886 20.8497 46.8181 18.1697 47.2547 15.5453C47.4432 14.3549 46.4383 13.3379 45.2641 13.4858C41.8634 13.9206 38.3983 13.0375 35.5757 10.8585C34.9413 10.368 34.0414 10.3605 33.3973 10.8585C30.5659 13.0428 27.1037 13.9189 23.7076 13.4858C22.5201 13.3437 21.5286 14.3538 21.7188 15.5529C21.8586 16.3965 21.9142 17.2738 21.8928 18.0172C21.8777 18.6492 22.3787 19.1734 23.0107 19.1884C23.6479 19.2052 24.1692 18.7031 24.1843 18.0705C24.1935 17.3324 24.1767 16.6754 24.0729 15.8294C27.7108 16.1379 31.3968 15.1725 34.4868 12.9071C37.5512 15.1545 41.232 16.1414 44.8988 15.8294C44.6014 18.2537 44.8785 20.7951 45.7924 23.1974C44.8727 23.1974 45.7361 23.1986 43.1541 23.1986C41.0279 23.1986 39.0344 24.2405 37.8214 25.9864L35.7589 28.9546H33.2233C29.2132 28.9546 27.5804 34.1429 30.8674 36.4431C29.2897 38.4076 29.8336 41.3578 32.0833 42.6091C30.5787 44.7597 31.4739 47.769 33.8924 48.7588C32.3965 51.2921 33.998 55.0257 37.2972 55.0257C41.1885 55.0257 43.8998 55.0268 45.8045 55.0268C44.9041 57.3775 44.5927 59.8974 44.8988 62.3919C41.2424 62.0805 37.5599 63.0604 34.4868 65.3142C33.8373 64.8405 33.1497 64.4143 32.4382 64.0479C31.8758 63.7574 31.1852 63.9789 30.8953 64.5407C30.6048 65.1032 30.8263 65.7938 31.3887 66.0837C32.0926 66.4472 32.7681 66.8769 33.3973 67.3628C34.042 67.8615 34.9419 67.8528 35.5757 67.3628C40.1952 63.7968 44.9661 64.7489 45.4932 64.7489C46.5983 64.7489 47.4408 63.7446 47.253 62.6679C46.8158 60.0343 47.1979 57.3873 48.292 55.0257C49.6993 55.0245 53.4705 55.3544 57.0069 52.5718C57.2864 52.4605 59.132 50.7082 59.7078 49.6726H72.0589C74.2327 49.6726 76 47.9036 76 45.7315V37.3628C76 36.7307 75.4868 36.217 74.8542 36.217C74.2216 36.217 73.7085 36.7307 73.7085 37.3628V45.7315C73.7085 46.6401 72.9675 47.3811 72.0589 47.3811H60.8854C61.8573 44.8455 61.6659 43.458 61.6659 37.5709C61.6659 35.1402 61.06 32.8487 59.9902 30.8402H72.0589C72.9675 30.8402 73.7085 31.5806 73.7085 32.4898V32.7797C73.7085 33.4141 74.2216 33.9255 74.8542 33.9255ZM31.3991 33.072C31.3991 32.0648 32.2179 31.2461 33.2233 31.2461H34.4879C34.1858 32.6087 35.0318 34.3673 37.3587 34.8956H33.2233C32.2179 34.8956 31.3991 34.0768 31.3991 33.072ZM41.3775 52.7342C41.3485 52.7342 37.27 52.7353 37.241 52.7324C35.0475 52.6194 35.1066 49.0847 37.3279 49.0847H41.3775C43.6447 49.0847 43.6429 52.7342 41.3775 52.7342ZM41.5944 46.7793C38.1328 46.7793 38.9393 46.7793 35.4626 46.7793C34.456 46.7793 33.6373 45.9617 33.6373 44.9551C33.6373 44.0262 34.329 43.1315 35.6064 43.1315H41.5944C42.6015 43.1315 43.4185 43.9485 43.4185 44.9551C43.4185 45.9617 42.6015 46.7793 41.5944 46.7793ZM41.5944 40.8365C33.3225 40.8365 33.8095 40.8963 33.3149 40.6672C31.5505 39.8514 32.1309 37.1871 34.0815 37.1871H41.5944C42.6015 37.1871 43.4185 38.0058 43.4185 39.013C43.4185 40.0178 42.6015 40.8365 41.5944 40.8365ZM41.5944 34.8956H39.5157C41.4587 34.4589 42.2589 33.1648 42.794 32.4086H43.2933C43.7606 33.6002 42.8764 34.8956 41.5944 34.8956ZM55.7417 50.6531C54.2608 51.8806 52.1114 52.7342 49.6436 52.7342C47.431 52.7342 47.1364 52.7342 44.9847 52.7342C45.5923 51.4539 45.5801 49.439 44.2894 48.0607C46.124 46.4754 46.1913 43.6551 44.4373 41.984C46.1333 40.3646 46.1345 37.6625 44.439 36.0413C44.5614 35.9271 44.6756 35.803 44.7829 35.672C46.135 37.9066 48.0804 39.3893 50.5406 40.1674C51.1454 40.357 51.7867 40.0196 51.9763 39.4159C52.1659 38.8129 51.8296 38.1693 51.2266 37.9803C49.8269 37.5361 48.6243 36.7945 47.6548 35.7085C45.5877 33.4065 45.4155 30.6048 45.3314 30.1171C45.1876 29.3274 44.2007 28.8357 43.353 28.9134C42.1661 29.0265 41.853 29.7675 40.5315 31.6404C39.3075 33.3973 36.7336 32.6945 36.7336 31.761C36.7336 31.4925 36.6008 31.761 39.7035 27.2945C40.4886 26.1638 41.7793 25.4901 43.1541 25.4901C47.6565 25.4901 48.2607 25.4187 49.8286 25.7562C55.2779 26.9246 59.375 31.7795 59.375 37.5709C59.375 43.1559 60.0882 47.2205 55.7417 50.6531Z" fill="#333951"/>
</g>
<defs>
<clipPath id="clip0">
<rect width="76" height="76" fill="white"/>
</clipPath>
</defs>
</svg>
