<svg width="76" height="76" viewBox="0 0 76 76" fill="none" xmlns="http://www.w3.org/2000/svg">
<path d="M64.5705 32.9812C64.04 31.4927 62.6295 30.4998 61.0492 30.5026C59.4705 30.5075 58.0656 31.5053 57.5411 32.9945H49.8361V28.0108H54.8197C55.5076 28.011 56.0655 27.4535 56.0656 26.7656C56.0656 26.7657 56.0656 26.7654 56.0656 26.7656V21.5518C58.0119 20.8637 59.032 18.7283 58.3439 16.7818C57.6559 14.8356 55.5204 13.8155 53.574 14.5036C51.6276 15.1916 50.6077 17.3271 51.2957 19.2735C51.672 20.338 52.5094 21.1754 53.5738 21.5518V25.5192H49.8361V23.0274C49.8363 22.3395 49.2787 21.7817 48.5909 21.7815C48.591 21.7815 48.5907 21.7815 48.5909 21.7815H46.0984V15.3221C48.0447 14.6341 49.0648 12.4986 48.3767 10.5522C47.6887 8.60593 45.5532 7.58585 43.6068 8.2739C41.6605 8.96195 40.6404 11.0974 41.3285 13.0438C41.7048 14.1083 42.5422 14.9457 43.6066 15.3221V21.7813H38.623V1.89068C38.6232 1.20278 38.0656 0.644931 37.3777 0.644775C37.3779 0.644775 37.3776 0.644775 37.3777 0.644775C22.0078 0.644775 9.96729 11.7727 9.96729 25.9777C9.96729 32.7255 12.6458 41.6597 16.9585 49.2921C17.733 50.6621 18.7434 52.1027 19.8129 53.6285C22.0743 56.8521 24.5911 60.4772 24.8647 63.6327C23.9069 64.3097 23.3464 65.4172 23.368 66.5899C23.3716 67.4323 23.6625 68.2483 24.1927 68.9031C23.4553 69.6307 23.0429 70.6252 23.0493 71.6612C23.0514 73.7245 24.7236 75.3967 26.787 75.3989H47.9673C50.0447 75.3859 51.7184 73.6915 51.7054 71.6141C51.7053 71.6006 51.7051 71.587 51.705 71.5735C51.7042 70.5601 51.2901 69.591 50.5583 68.8898C51.0953 68.2099 51.387 67.3686 51.3862 66.5022C51.3825 64.5289 49.7798 62.9322 47.8064 62.936C47.7538 62.9361 47.7011 62.9374 47.6485 62.9397H38.623V39.2238H41.1148V42.9615C41.1147 43.6494 41.6722 44.2073 42.3601 44.2074C42.3599 44.2074 42.3603 44.2074 42.3601 44.2074H46.0984V45.6829C44.1522 46.3709 43.1322 48.5066 43.8204 50.4527C44.5087 52.3988 46.6441 53.4188 48.5902 52.7306C50.5365 52.0426 51.5564 49.9069 50.8682 47.9608C50.4919 46.8964 49.6545 46.0591 48.5902 45.6829V42.9615C48.5904 42.2736 48.0328 41.7158 47.345 41.7156C47.3451 41.7156 47.3448 41.7156 47.345 41.7156H43.6066V39.2238H48.5902C49.2781 39.224 49.836 38.6664 49.8361 37.9785C49.8361 37.9787 49.8361 37.9784 49.8361 37.9785V35.4861H57.5413C58.233 37.4272 60.3673 38.44 62.3084 37.7482C64.2493 37.0566 65.2621 34.9223 64.5705 32.9812ZM54.8197 16.7976C55.5078 16.7976 56.0656 17.3554 56.0656 18.0435C56.0656 18.7315 55.5078 19.2894 54.8197 19.2894C54.1317 19.2894 53.5738 18.7315 53.5738 18.0435C53.5745 17.3557 54.132 16.7984 54.8197 16.7976ZM21.8532 52.1975C20.8189 50.7229 19.8426 49.331 19.1278 48.0657C15.0769 40.8956 12.4591 32.2254 12.4591 25.9777C12.4591 13.5528 22.7591 3.73882 36.1312 3.16337V11.8672C35.8004 11.892 35.4629 11.9221 35.1019 11.9663C34.5731 12.0306 34.1437 12.4243 34.0337 12.9457L33.6541 14.7513C33.3413 14.8256 33.0295 14.9096 32.7184 15.0032L31.4767 13.6185C31.121 13.2206 30.5513 13.0938 30.0604 13.3034C28.6659 13.9047 27.3498 14.6733 26.1408 15.592C25.7152 15.9128 25.5409 16.469 25.7071 16.9754L26.2789 18.7178C26.0435 18.9393 25.8142 19.1692 25.5921 19.404L23.8516 18.8321C23.3453 18.6681 22.7906 18.8418 22.4682 19.2652C21.5483 20.4745 20.7791 21.7913 20.1778 23.1867C19.9684 23.6776 20.0952 24.2471 20.4928 24.603L21.8781 25.8441C21.785 26.152 21.7017 26.4605 21.6281 26.7699L19.6906 27.1568C19.1082 27.273 18.6888 27.7844 18.6888 28.3784V32.6269C18.6888 33.2209 19.1082 33.7323 19.6908 33.8485L21.6283 34.2354C21.702 34.5444 21.7853 34.853 21.8783 35.1612L20.4925 36.4023C20.0954 36.7585 19.9688 37.3277 20.1774 37.8186C20.7789 39.2138 21.5479 40.5308 22.4679 41.7401C22.7899 42.164 23.345 42.3376 23.8513 42.1732L25.5918 41.6013C25.8145 41.8362 26.0431 42.066 26.2786 42.2875L25.7068 44.0274C25.5407 44.5337 25.7147 45.0895 26.1399 45.4108C27.3489 46.3309 28.6656 47.1002 30.0607 47.7019C30.5516 47.9102 31.1207 47.7836 31.477 47.3868L32.7187 46.0021C33.0295 46.0959 33.3415 46.1798 33.6544 46.254L34.0334 48.0583C34.1429 48.5802 34.5724 48.9745 35.1016 49.039C35.4631 49.0833 35.8007 49.1133 36.1315 49.1381V62.9399H27.3028C26.7933 59.268 24.1925 55.533 21.8532 52.1975ZM26.164 30.5025C26.1719 36.2093 30.4603 41.0022 36.1312 41.6421V45.9266L35.925 44.9459C35.821 44.4493 35.4262 44.0652 34.9267 43.9751C34.1882 43.8407 33.4622 43.6449 32.7562 43.3898C32.6209 43.3417 32.4782 43.3171 32.3346 43.3168C31.9805 43.3168 31.643 43.4677 31.4069 43.7316L30.2353 45.0384C29.586 44.714 28.9595 44.346 28.3597 43.9374L28.9006 42.2912C29.059 41.8087 28.909 41.2786 28.5216 40.9505C27.947 40.4641 27.4136 39.931 26.9271 39.3567C26.598 38.9718 26.0696 38.8229 25.5881 38.9795L23.9426 39.521C23.5336 38.9211 23.1656 38.2942 22.8409 37.6448L24.1488 36.4732C24.526 36.1344 24.6608 35.6012 24.49 35.1239C24.2352 34.4177 24.0394 33.6917 23.9047 32.9533C23.8138 32.4498 23.4241 32.0532 22.9222 31.9532L21.1804 31.605V29.4003L22.9222 29.0524C23.424 28.9526 23.8138 28.5558 23.9047 28.0523C24.0394 27.3135 24.2352 26.5869 24.4898 25.8804C24.661 25.4029 24.5258 24.8695 24.148 24.531L22.8412 23.3605C23.1662 22.7114 23.5341 22.0846 23.9422 21.4843L25.5884 22.0258C26.0699 22.1822 26.5982 22.0335 26.9274 21.6486C27.4152 21.0738 27.9489 20.5396 28.5231 20.0511C28.909 19.7236 29.0582 19.1948 28.9003 18.7139L28.3601 17.0678C28.9598 16.6593 29.5862 16.2914 30.235 15.9667L31.4066 17.2735C31.7455 17.6504 32.2784 17.7854 32.7559 17.6154C33.4619 17.3601 34.1879 17.1643 34.9264 17.0301C35.4257 16.9404 35.8205 16.5568 35.9247 16.0603L36.1312 15.0796V19.3629C30.4603 20.003 26.1719 24.7956 26.164 30.5025ZM36.1312 21.8807V39.1243C31.3695 38.4426 28.062 34.0298 28.7436 29.2681C29.292 25.4382 32.3012 22.4291 36.1312 21.8807ZM49.2132 71.6612C49.2126 72.3489 48.655 72.9064 47.9673 72.9071H26.787C26.0863 72.8952 25.5278 72.3176 25.5397 71.6169C25.54 71.6025 25.5404 71.588 25.5411 71.5735C25.5417 70.8857 26.0992 70.3282 26.787 70.3276H47.9673C48.6679 70.3394 49.2264 70.9171 49.2146 71.6177C49.2144 71.6322 49.214 71.6467 49.2132 71.6612ZM47.6485 65.4317C48.2761 65.3737 48.8319 65.8358 48.8897 66.4634C48.8936 66.5055 48.8952 66.5477 48.8944 66.5899C48.8938 67.2776 48.3362 67.8352 47.6485 67.8358H27.1057C26.4051 67.824 25.8466 67.2465 25.8584 66.5457C25.8588 66.5312 25.8592 66.5167 25.8598 66.5022C25.8865 65.8811 26.4116 65.3993 27.0327 65.4261C27.0572 65.4271 27.0815 65.429 27.1057 65.4315L47.6485 65.4317ZM47.3443 47.9451C48.0324 47.9451 48.5902 48.503 48.5902 49.191C48.5902 49.8791 48.0324 50.4369 47.3443 50.4369C46.6563 50.4369 46.0984 49.8791 46.0984 49.191C46.099 48.5033 46.6566 47.9459 47.3443 47.9451ZM44.8525 10.5681C45.5406 10.5681 46.0984 11.1259 46.0984 11.814C46.0984 12.502 45.5406 13.0599 44.8525 13.0599C44.1645 13.0599 43.6066 12.502 43.6066 11.814C43.6072 11.1262 44.1648 10.5688 44.8525 10.5681ZM47.3443 36.732H38.623V24.273H47.3443V36.732ZM61.0492 35.4861C60.3612 35.4861 59.8033 34.9282 59.8033 34.2402C59.8033 33.5521 60.3612 32.9943 61.0492 32.9943C61.7373 32.9943 62.2951 33.5521 62.2951 34.2402C62.2945 34.9281 61.737 35.4855 61.0492 35.4861Z" fill="#333951"/>
<path d="M49.3961 57.6992C48.9568 58.4848 48.568 59.2976 48.2324 60.1326L50.549 61.0501C50.8459 60.3134 51.1894 59.5966 51.5777 58.9038L49.3961 57.6992Z" fill="#FF2A2A"/>
<path d="M52.1988 53.3108C51.7092 54.0141 51.2206 54.7294 50.7534 55.4522L52.845 56.8052C53.2975 56.1069 53.7702 55.4157 54.2441 54.7344L52.1988 53.3108Z" fill="#FF2A2A"/>
<path d="M55.0335 49.1655C54.6131 49.8322 54.1447 50.5222 53.6538 51.2303L55.7004 52.6514C56.2144 51.9117 56.7035 51.1901 57.1422 50.4918L55.0335 49.1655Z" fill="#FF2A2A"/>
<path d="M57.3714 44.823C57.0143 45.5701 56.641 46.3086 56.2515 47.0387L58.4488 48.214C58.8563 47.4512 59.2468 46.6786 59.6199 45.8962L57.3714 44.823Z" fill="#FF2A2A"/>
<path d="M59.3177 40.2507C59.0282 41.0209 58.7197 41.7922 58.3936 42.5575L60.6871 43.5334C61.0266 42.734 61.3476 41.9318 61.6502 41.1268L59.3177 40.2507Z" fill="#FF2A2A"/>
<path d="M64.7894 25.833L62.2976 25.8525L62.2989 26.0813C62.2989 26.776 62.2666 27.5145 62.2021 28.2737L64.6854 28.483C64.7553 27.6545 64.7907 26.8465 64.7907 26.0813L64.7894 25.833Z" fill="#FF2A2A"/>
<path d="M64.1551 20.5293L61.729 21.0963C61.9111 21.8752 62.0495 22.6637 62.1439 23.4579L64.6187 23.1634C64.513 22.2776 64.3582 21.3982 64.1551 20.5293Z" fill="#FF2A2A"/>
<path d="M62.364 15.4944L60.124 16.5845C60.4743 17.3042 60.7847 18.0427 61.0536 18.7965L63.4006 17.9619C63.1013 17.1208 62.7552 16.2969 62.364 15.4944Z" fill="#FF2A2A"/>
<path d="M59.514 10.9832L57.5625 12.5332C58.0612 13.1611 58.5262 13.8149 58.9556 14.4921L61.0616 13.161C60.5847 12.4082 60.0682 11.6812 59.514 10.9832Z" fill="#FF2A2A"/>
<path d="M55.7801 7.18066L54.1924 9.1006C54.8118 9.61298 55.4045 10.1568 55.9681 10.7298L57.7444 8.98255C57.1207 8.34885 56.4651 7.74755 55.7801 7.18066Z" fill="#FF2A2A"/>
<path d="M51.3715 4.21094L50.1865 6.40341C50.8982 6.78793 51.5949 7.20889 52.2567 7.65414L53.6475 5.58579C52.9191 5.09677 52.1538 4.63439 51.3715 4.21094Z" fill="#FF2A2A"/>
<path d="M46.4883 2.1438L45.7339 4.5188C46.5101 4.76455 47.2737 5.0469 48.0042 5.35713L48.9788 3.06483C48.1765 2.72283 47.3381 2.41385 46.4883 2.1438Z" fill="#FF2A2A"/>
<path d="M41.3188 1L41 3.47234C41.8036 3.57575 42.6078 3.71575 43.3903 3.88971L43.9293 1.45631C43.0746 1.26771 42.1961 1.11431 41.3188 1Z" fill="#FF2A2A"/>
<path d="M4.9835 67.8799H2.4917V70.3717H4.9835V67.8799Z" fill="#FF2A2A"/>
<path d="M4.9835 72.8633H2.4917V75.3551H4.9835V72.8633Z" fill="#FF2A2A"/>
<path d="M7.4752 70.3716H4.9834V72.8634H7.4752V70.3716Z" fill="#FF2A2A"/>
<path d="M2.4918 70.3716H0V72.8634H2.4918V70.3716Z" fill="#FF2A2A"/>
<path d="M73.5084 0.601074H71.0166V3.09288H73.5084V0.601074Z" fill="#FF2A2A"/>
<path d="M73.5123 5.68799H71.0205V8.17979H73.5123V5.68799Z" fill="#FF2A2A"/>
<path d="M76.0001 3.09277H73.5083V5.58458H76.0001V3.09277Z" fill="#FF2A2A"/>
<path d="M71.0162 3.09277H68.5244V5.58458H71.0162V3.09277Z" fill="#333951"/>
</svg>
