<svg width="70" height="70" viewBox="0 0 70 70" fill="none" xmlns="http://www.w3.org/2000/svg">
<path d="M35 0C17.6307 0 3.5 14.1318 3.5 31.5C3.5 31.8477 3.5 40.8334 3.5 40.8334C3.5 56.9159 17.6307 70 35 70C52.3693 70 66.5 56.9159 66.5 40.8334C66.5 40.8334 66.5 31.8477 66.5 31.5C66.5 14.1318 52.3693 0 35 0ZM10.5 51.3334V55.3654C8.11303 51.9704 6.53447 48.0539 6.02123 43.8422C7.17268 46.5359 8.69176 49.035 10.5105 51.282C10.5093 51.3007 10.5 51.3159 10.5 51.3334ZM16.3334 61.4332C15.0711 60.4625 13.9021 59.395 12.8334 58.2446V53.8557C13.9243 54.9371 15.0944 55.9393 16.3334 56.8541V61.4332ZM22.1666 64.9227C20.9206 64.358 19.7236 63.7164 18.585 63H18.6666V58.4255C19.7879 59.108 20.9591 59.7159 22.1666 60.2561V64.9227ZM28 66.8804C26.8018 66.6073 25.6352 66.2655 24.5 65.8607V61.1939C25.6375 61.5977 26.8064 61.9348 28 62.2066V66.8804ZM33.8334 67.6398C32.6469 67.5966 31.4791 67.4893 30.3334 67.3189V62.6523C31.4814 62.8238 32.6493 62.9277 33.8334 62.9709V67.6398ZM39.6666 67.3189C38.5209 67.4893 37.3531 67.5966 36.1666 67.6398V62.9709C37.3507 62.9277 38.5186 62.8239 39.6666 62.6523V67.3189ZM45.5 65.8607C44.3648 66.2655 43.1982 66.6073 42 66.8804V62.2066C43.1936 61.9348 44.3625 61.5977 45.5 61.1939V65.8607ZM47.8334 64.9227V60.2571C49.0409 59.7159 50.2122 59.1091 51.3334 58.4266V63H51.415C50.2763 63.7163 49.0793 64.358 47.8334 64.9227ZM57.1666 58.2446C56.0979 59.395 54.9289 60.4625 53.6666 61.4332V56.8541C54.9056 55.9394 56.0757 54.9384 57.1666 53.8557V58.2446ZM59.5 55.3654V51.3334C59.5 51.3147 59.4907 51.2996 59.4895 51.2821C61.3082 49.0351 62.8273 46.5361 63.9788 43.8434C63.4655 48.0538 61.887 51.9714 59.5 55.3654ZM35 60.578C18.9664 60.578 5.9232 47.5346 5.9232 31.5C5.9232 15.4654 18.9664 2.4232 35 2.4232C51.0336 2.4232 64.0768 15.4677 64.0768 31.5012C64.0768 47.5348 51.0336 60.578 35 60.578Z" fill="white"/>
<path d="M35.0001 7.27063C21.6393 7.27063 10.7684 18.1394 10.7684 31.4999C10.7684 44.8605 21.6393 55.7305 35.0001 55.7305C48.3608 55.7305 59.2317 44.8617 59.2317 31.4999C59.2317 18.1381 48.3608 7.27063 35.0001 7.27063ZM35.0001 53.3085C22.9752 53.3085 13.1927 43.5248 13.1927 31.4999C13.1927 19.4751 22.9752 9.6926 35.0001 9.6926C47.0249 9.6926 56.8074 19.4763 56.8074 31.4999C56.8074 43.5235 47.0249 53.3085 35.0001 53.3085Z" fill="white"/>
<path d="M36.1667 30.5643V21.4177C40.3293 21.6102 41.8006 22.8282 42.5449 23.7662C42.9451 24.2725 43.6777 24.3577 44.184 23.9552C44.6892 23.555 44.7731 22.8212 44.3729 22.3171C42.764 20.2895 40.1333 19.2582 36.1678 19.0902V17.4032C36.1678 16.758 35.6451 16.2366 35.0011 16.2366C34.3572 16.2366 33.8345 16.758 33.8345 17.4032V19.1159C28.6661 19.586 25.9233 22.7698 25.8767 25.886C25.8311 28.875 28.2893 31.9912 33.8345 32.5803V41.5928C30.2622 41.4891 29.0383 40.8496 27.3793 39.1441C26.9302 38.6821 26.1906 38.6716 25.7297 39.1207C25.2677 39.5698 25.2572 40.3095 25.7063 40.7703C27.9218 43.05 29.7885 43.813 33.8333 43.9273V45.5968C33.8333 46.242 34.356 46.7634 34.9999 46.7634C35.6439 46.7634 36.1665 46.242 36.1665 45.5968V43.8795C40.8822 43.4618 44.381 41.0363 44.6528 37.8595C44.7615 36.5925 44.4186 32.4438 36.1667 30.5643ZM33.8334 30.2166C29.9391 29.7254 28.1809 27.7864 28.2089 25.9221C28.2393 23.9155 30.1888 21.8832 33.8334 21.4784V30.2166ZM42.329 37.6612C42.182 39.3657 39.8579 41.146 36.1667 41.5264V32.9573C40.8731 34.1437 42.455 36.1795 42.329 37.6612Z" fill="white"/>
</svg>
