<svg width="21" height="21" viewBox="0 0 21 21" fill="none" xmlns="http://www.w3.org/2000/svg">
<g clip-path="url(#clip0)">
<path d="M20.9549 16.2712C20.8955 16.0922 20.5176 15.8285 19.8215 15.4808C19.6329 15.3712 19.3642 15.2223 19.0165 15.0334C18.6685 14.8444 18.3526 14.6703 18.0694 14.5112C17.7856 14.3521 17.5198 14.198 17.2714 14.0491C17.2317 14.0192 17.1074 13.9324 16.8986 13.7879C16.6896 13.6438 16.5134 13.5369 16.3689 13.4671C16.2248 13.3978 16.083 13.3629 15.9438 13.3629C15.745 13.3629 15.4966 13.5047 15.1985 13.7879C14.9003 14.0714 14.6267 14.3794 14.3783 14.7128C14.1298 15.0461 13.8663 15.3541 13.5881 15.6375C13.3096 15.921 13.0807 16.0626 12.902 16.0626C12.8122 16.0626 12.7003 16.0376 12.5662 15.9882C12.4322 15.9385 12.3302 15.8959 12.2602 15.8616C12.1908 15.8266 12.0718 15.7572 11.9026 15.6524C11.7332 15.548 11.6389 15.4908 11.6191 15.4808C10.2569 14.725 9.08873 13.8599 8.11421 12.8858C7.14 11.9111 6.27482 10.743 5.51918 9.38073C5.50925 9.36082 5.45195 9.26632 5.34763 9.09738C5.24315 8.92828 5.17351 8.80913 5.13872 8.73934C5.10393 8.6698 5.06167 8.56783 5.01204 8.43363C4.96242 8.29943 4.9375 8.18764 4.9375 8.09805C4.9375 7.91918 5.07922 7.69037 5.36262 7.41194C5.64596 7.13366 5.95428 6.87006 6.28725 6.62167C6.62048 6.37327 6.92849 6.09975 7.21194 5.80157C7.49528 5.50323 7.63695 5.25478 7.63695 5.05596C7.63695 4.91685 7.60216 4.77502 7.53263 4.63089C7.46305 4.48645 7.35617 4.31019 7.21194 4.10129C7.06765 3.89249 6.98067 3.76832 6.95079 3.72835C6.80181 3.47996 6.64786 3.21401 6.48858 2.93061C6.3293 2.64727 6.15545 2.33143 5.96645 1.98347C5.77761 1.63566 5.62857 1.3671 5.51908 1.1782C5.17127 0.482323 4.90783 0.104321 4.7288 0.0448734C4.65917 0.0150449 4.55469 0 4.41563 0C4.14702 0 3.7966 0.0496271 3.36411 0.149195C2.93147 0.248606 2.59102 0.352875 2.34242 0.46242C1.84526 0.671115 1.31832 1.27761 0.761455 2.2817C0.254371 3.21615 0.000854492 4.14104 0.000854492 5.0557C0.000854492 5.32394 0.0182501 5.58493 0.0530413 5.83871C0.0878325 6.09222 0.149997 6.37813 0.239587 6.69637C0.32902 7.0145 0.401162 7.25083 0.4557 7.40473C0.51029 7.55873 0.612208 7.83461 0.761403 8.23246C0.910389 8.63021 0.999979 8.87369 1.02981 8.96318C1.37777 9.93765 1.79041 10.8076 2.26761 11.5733C3.05277 12.8459 4.12424 14.1611 5.48141 15.5184C6.83863 16.8756 8.1536 17.947 9.42635 18.7325C10.1919 19.2096 11.0622 19.6222 12.0365 19.9704C12.126 20.0001 12.3695 20.0895 12.7671 20.239C13.1648 20.3881 13.4408 20.49 13.5948 20.5447C13.7489 20.5994 13.9853 20.6716 14.3031 20.7612C14.6217 20.8508 14.9073 20.913 15.1608 20.948C15.4145 20.9823 15.6756 21.0001 15.9439 21.0001C16.8585 21.0001 17.7834 20.7464 18.718 20.2393C19.722 19.6827 20.3283 19.1556 20.5371 18.6581C20.6469 18.4098 20.7509 18.0692 20.8504 17.6366C20.9501 17.2042 20.9996 16.8538 20.9996 16.5852C20.9999 16.4456 20.9849 16.3414 20.9549 16.2712Z" fill="#FF2A2A"/>
</g>
<defs>
<clipPath id="clip0">
<rect width="21" height="21" fill="white"/>
</clipPath>
</defs>
</svg>
