<svg width="70" height="70" viewBox="0 0 70 70" fill="none" xmlns="http://www.w3.org/2000/svg">
<path d="M64.3548 18.0645H59.7811C59.1918 8.0071 50.8471 0 40.6452 0C30.4432 0 22.0985 8.0071 21.5092 18.0645H16.9355C13.8227 18.0645 11.2903 20.5969 11.2903 23.7097V43.1076C4.89323 44.1881 0 49.7519 0 56.4516C0 63.9224 6.07758 70 13.5484 70C18.55 70 22.9171 67.2689 25.2632 63.2258H64.3548C67.4676 63.2258 70 60.6934 70 57.5806V23.7097C70 20.5969 67.4676 18.0645 64.3548 18.0645ZM40.6452 2.25806C49.6018 2.25806 56.9382 9.25242 57.5231 18.0645H54.136C53.559 11.121 47.7344 5.64516 40.6452 5.64516C33.556 5.64516 27.7313 11.121 27.1544 18.0645H23.7673C24.3521 9.25242 31.6885 2.25806 40.6452 2.25806ZM51.8779 18.0645H29.4124C29.9803 12.3674 34.8013 7.90323 40.6452 7.90323C46.489 7.90323 51.31 12.3674 51.8779 18.0645ZM13.5484 67.7419C7.3229 67.7419 2.25806 62.6771 2.25806 56.4516C2.25806 50.2261 7.3229 45.1613 13.5484 45.1613C19.7739 45.1613 24.8387 50.2261 24.8387 56.4516C24.8387 62.6771 19.7739 67.7419 13.5484 67.7419ZM67.7419 57.5818C67.7419 59.4492 66.2223 60.9677 64.3548 60.9677H26.3064C26.8089 59.5531 27.0968 58.0368 27.0968 56.4516C27.0968 48.9808 21.0192 42.9032 13.5484 42.9032V35.4121L35 42.1806V42.9044C35 44.7718 36.5197 46.2915 38.3871 46.2915H42.9032C44.7706 46.2915 46.2903 44.7718 46.2903 42.9044V42.3161L67.7419 35.4211V57.5818ZM37.2581 42.9032V37.2581H44.0323V42.9032C44.0323 43.5265 43.5253 44.0323 42.9032 44.0323H38.3871C37.765 44.0323 37.2581 43.5265 37.2581 42.9032ZM67.7419 33.0479L46.2903 39.9429V35H35V39.8108L13.5484 33.0423V23.7085C13.5484 21.8423 15.0681 20.3226 16.9355 20.3226H64.3548C66.2223 20.3226 67.7419 21.8423 67.7419 23.7097V33.0479Z" fill="white"/>
<path d="M46.2903 48.5483H44.0322V50.8064H46.2903V48.5483Z" fill="white"/>
<path d="M41.7742 48.5483H39.5161V50.8064H41.7742V48.5483Z" fill="white"/>
<path d="M37.2581 48.5483H35V50.8064H37.2581V48.5483Z" fill="white"/>
<path d="M11.2903 51.9356H15.8064C16.4297 51.9356 16.9355 52.4425 16.9355 53.0657H19.1935C19.1935 51.1983 17.6738 49.6775 15.8064 49.6775H14.6774V47.4194H12.4193V49.6775H11.2903C9.42288 49.6775 7.9032 51.1983 7.9032 53.0657V54.1936C7.9032 56.061 9.42288 57.5807 11.2903 57.5807H15.8064C16.4297 57.5807 16.9355 58.0877 16.9355 58.7109V59.8388C16.9355 60.462 16.4285 60.9678 15.8064 60.9678H11.2903C10.6671 60.9678 10.1613 60.462 10.1613 59.8388H7.9032C7.9032 61.7062 9.42288 63.2259 11.2903 63.2259H12.4193V65.4839H14.6774V63.2259H15.8064C17.6738 63.2259 19.1935 61.7062 19.1935 59.8388V58.7109C19.1935 56.8435 17.6738 55.3227 15.8064 55.3227H11.2903C10.6671 55.3227 10.1613 54.8168 10.1613 54.1936V53.0657C10.1613 52.4425 10.6682 51.9356 11.2903 51.9356Z" fill="white"/>
</svg>
