<svg width="76" height="76" viewBox="0 0 76 76" fill="none" xmlns="http://www.w3.org/2000/svg">
<path d="M64.6 7.201V0H62.0667V6.43467C61.6471 6.37054 61.2243 6.33729 60.8 6.33333H58.2667V0H55.7333V6.33333H51.9333V0H49.4V6.33333H45.6V0H43.0667V6.33333H39.2667V0H36.7333V6.33333H32.9333V0H30.4V6.33333H26.6V0H24.0667V6.33333H20.2667V0H17.7333V6.33333H15.2C14.7757 6.33729 14.3529 6.37054 13.9333 6.43467V0H11.4V7.201C9.56135 8.07935 8.07935 9.56135 7.201 11.4H0V13.9333H6.43467C6.37054 14.3529 6.33729 14.7757 6.33333 15.2V17.7333H0V20.2667H6.33333V24.0667H0V26.6H6.33333V30.4H0V32.9333H6.33333V36.7333H0V39.2667H6.33333V43.0667H0V45.6H6.33333V49.4H0V51.9333H6.33333V55.7333H0V58.2667H6.33333V60.8C6.33729 61.2243 6.37054 61.6471 6.43467 62.0667H0V64.6H7.201C8.07935 66.4386 9.56135 67.9206 11.4 68.799V76H13.9333V69.5653C14.3529 69.6295 14.7757 69.6627 15.2 69.6667H17.7333V76H20.2667V69.6667H24.0667V76H26.6V69.6667H30.4V76H32.9333V69.6667H36.7333V76H39.2667V69.6667H43.0667V76H45.6V69.6667H49.4V76H51.9333V69.6667H55.7333V76H58.2667V69.6667H60.8C61.2243 69.6627 61.6471 69.6295 62.0667 69.5653V76H64.6V68.799C66.4386 67.9206 67.9206 66.4386 68.799 64.6H76V62.0667H69.5653C69.6295 61.6471 69.6627 61.2243 69.6667 60.8V58.2667H76V55.7333H69.6667V51.9333H76V49.4H69.6667V45.6H76V43.0667H69.6667V39.2667H76V36.7333H69.6667V32.9333H76V30.4H69.6667V26.6H76V24.0667H69.6667V20.2667H76V17.7333H69.6667V15.2C69.6627 14.7757 69.6295 14.3529 69.5653 13.9333H76V11.4H68.799C67.9206 9.56135 66.4386 8.07935 64.6 7.201ZM67.1333 60.8C67.129 64.296 64.296 67.129 60.8 67.1333H15.2C11.704 67.129 8.87102 64.296 8.86667 60.8V15.2C8.87102 11.704 11.704 8.87102 15.2 8.86667H60.8C64.296 8.87102 67.129 11.704 67.1333 15.2V60.8Z" fill="#333951"/>
<path d="M59.5332 12.6667H16.4665C14.3682 12.6667 12.6665 14.3684 12.6665 16.4667V59.5334C12.6665 61.6317 14.3682 63.3334 16.4665 63.3334H59.5332C61.6315 63.3334 63.3332 61.6317 63.3332 59.5334V16.4667C63.3332 14.3684 61.6315 12.6667 59.5332 12.6667ZM60.7998 59.5334C60.7998 60.2332 60.233 60.8001 59.5332 60.8001H16.4665C15.7667 60.8001 15.1998 60.2332 15.1998 59.5334V16.4667C15.1998 15.7669 15.7667 15.2001 16.4665 15.2001H59.5332C60.233 15.2001 60.7998 15.7669 60.7998 16.4667V59.5334Z" fill="#333951"/>
<path d="M38.5033 50.308C34.5646 50.308 32.5953 48.0493 32.5953 43.532C32.5953 40.8813 33.5006 39.052 35.3113 38.044C34.5833 37.54 34.0046 36.868 33.5753 36.028C33.1459 35.1693 32.9313 34.124 32.9313 32.892C32.9313 31.0627 33.4073 29.6347 34.3593 28.608C35.3113 27.5813 36.6926 27.068 38.5033 27.068C40.3326 27.068 41.7139 27.5813 42.6473 28.608C43.5806 29.6347 44.0473 31.0627 44.0473 32.892C44.0473 35.2627 43.2633 36.98 41.6953 38.044C43.5059 39.0707 44.4113 40.928 44.4113 43.616C44.4113 48.0773 42.4419 50.308 38.5033 50.308ZM38.5033 36.532C39.7353 36.5133 40.3513 35.3093 40.3513 32.92C40.3513 32.024 40.2019 31.3147 39.9033 30.792C39.6046 30.2693 39.1379 30.008 38.5033 30.008C37.8686 30.008 37.3926 30.2693 37.0753 30.792C36.7579 31.3147 36.5993 32.0147 36.5993 32.892C36.5993 35.3 37.2339 36.5133 38.5033 36.532ZM38.5033 47.368C39.3619 47.368 39.9313 47.0133 40.2113 46.304C40.4913 45.576 40.6313 44.624 40.6313 43.448C40.6313 42.3653 40.4726 41.4973 40.1553 40.844C39.8566 40.172 39.3059 39.8267 38.5033 39.808C37.7006 39.8267 37.1406 40.1907 36.8233 40.9C36.5059 41.5907 36.3473 42.5053 36.3473 43.644C36.3473 44.7453 36.4966 45.6413 36.7953 46.332C37.0939 47.0227 37.6633 47.368 38.5033 47.368Z" fill="#FF2A2A"/>
<path d="M55.7334 17.7334H58.2667V20.2667H55.7334V17.7334Z" fill="#333951"/>
<path d="M17.7334 55.7334H20.2667V58.2667H17.7334V55.7334Z" fill="#333951"/>
<path d="M17.7334 20.2667V24.0667H20.2667V20.2667H24.0667V17.7334H20.2667C18.8675 17.7334 17.7334 18.8675 17.7334 20.2667Z" fill="#FF2A2A"/>
<path d="M58.3335 55.7999L58.3335 51.9999L55.8002 51.9999L55.8002 55.7999L52.0002 55.7999L52.0002 58.3333L55.8002 58.3333C57.1994 58.3333 58.3335 57.1992 58.3335 55.7999Z" fill="#FF2A2A"/>
</svg>
