<svg width="76" height="76" viewBox="0 0 76 76" fill="none" xmlns="http://www.w3.org/2000/svg">
<path d="M53.3879 0H26.2988C22.3572 0 19.1504 3.20684 19.1504 7.14845V68.8514C19.1504 72.793 22.3572 75.9998 26.2988 75.9998H53.3879C57.3296 75.9998 60.5364 72.793 60.5364 68.8514V7.14845C60.5365 3.20684 57.3296 0 53.3879 0ZM58.2791 68.8515C58.2791 71.5485 56.0851 73.7427 53.3879 73.7427H26.2988C23.602 73.7427 21.4077 71.5487 21.4077 68.8515V7.14845C21.4077 4.45149 23.6019 2.25729 26.2988 2.25729H53.3879C56.0849 2.25729 58.2791 4.45134 58.2791 7.14845V68.8515Z" fill="#333951"/>
<path d="M23.665 9.02979V60.9506H56.0214V9.02979H23.665ZM53.764 58.6931H25.9225V11.2872H53.764V58.6931Z" fill="#333951"/>
<path d="M39.8437 63.208C37.5616 63.208 35.7051 65.0647 35.7051 67.3466C35.7051 69.6285 37.5616 71.4852 39.8437 71.4852C42.1256 71.4852 43.9823 69.6285 43.9823 67.3466C43.9823 65.0647 42.1256 63.208 39.8437 63.208ZM39.8437 69.2277C38.8062 69.2277 37.9625 68.3839 37.9625 67.3466C37.9625 66.3092 38.8064 65.4654 39.8437 65.4654C40.8811 65.4654 41.7248 66.3093 41.7248 67.3466C41.7248 68.384 40.8809 69.2277 39.8437 69.2277Z" fill="#FF2A2A"/>
<path d="M44.3584 4.51489H35.3286V6.77233H44.3584V4.51489Z" fill="#333951"/>
<path d="M33.0714 4.51489H30.814V6.77233H33.0714V4.51489Z" fill="#333951"/>
<path d="M48.8732 4.51489H46.6157V6.77233H48.8732V4.51489Z" fill="#333951"/>
<path d="M17.7208 11.5127H15.4634V17.5324H17.7208V11.5127Z" fill="#333951"/>
<path d="M17.7208 19.79H15.4634V25.8099H17.7208V19.79Z" fill="#333951"/>
<path d="M36.3819 33.8616H34.1245V36.119H36.3819V33.8616Z" fill="#FF2A2A"/>
<path d="M40.8971 33.8616H38.6396V36.119H40.8971V33.8616Z" fill="#FF2A2A"/>
<path d="M45.4117 33.8616H43.1543V36.119H45.4117V33.8616Z" fill="#FF2A2A"/>
</svg>
