<svg width="24" height="23" viewBox="0 0 24 23" fill="none" xmlns="http://www.w3.org/2000/svg">
<g clip-path="url(#clip0)">
<path d="M21.4056 20.5357C21.9226 20.5357 22.3706 20.365 22.7514 20.0279L16.2352 13.5114C16.0788 13.6233 15.9273 13.7322 15.7842 13.8357C15.2965 14.195 14.9007 14.4754 14.5968 14.6763C14.2929 14.8776 13.8886 15.0829 13.384 15.2924C12.8789 15.5022 12.4084 15.6068 11.972 15.6068H11.9592H11.9464C11.5099 15.6068 11.0395 15.5022 10.5345 15.2924C10.0295 15.0829 9.62521 14.8776 9.32163 14.6763C9.01776 14.4754 8.62218 14.1951 8.13428 13.8357C7.99832 13.7361 7.84753 13.6267 7.68451 13.5096L1.16699 20.0279C1.54778 20.365 1.99605 20.5357 2.51301 20.5357H21.4056Z" fill="#E9BA89"/>
<path d="M22.1754 9.40803C20.4272 10.5913 18.9414 11.6099 17.7178 12.4645L23.4589 18.2059V8.29126C23.0908 8.7022 22.6631 9.07426 22.1754 9.40803Z" fill="#E9BA89"/>
<path d="M1.75544 9.40803C1.26783 9.08295 0.835431 8.71063 0.458984 8.29126V18.2056L6.2024 12.4622C5.05339 11.66 3.57295 10.6431 1.75544 9.40803Z" fill="#E9BA89"/>
<path d="M21.405 2.46423H2.51243C1.85332 2.46423 1.34659 2.6868 0.991606 3.13148C0.63633 3.57637 0.458984 4.13275 0.458984 4.8C0.458984 5.33897 0.694332 5.92295 1.16482 6.55212C1.6353 7.18103 2.13594 7.67503 2.66647 8.03435C2.95732 8.23984 3.8344 8.84959 5.29772 9.86339C6.08765 10.4108 6.77461 10.8879 7.36494 11.2996C7.86813 11.6502 8.30207 11.9539 8.66036 12.2058C8.70149 12.2347 8.76617 12.281 8.85203 12.3423C8.94452 12.4088 9.06157 12.4931 9.20597 12.5974C9.48403 12.7985 9.71504 12.961 9.89902 13.0852C10.0828 13.2094 10.3054 13.3482 10.5665 13.5023C10.8275 13.6562 11.0736 13.7719 11.3046 13.8488C11.5356 13.9258 11.7495 13.9643 11.9463 13.9643H11.9591H11.9718C12.1686 13.9643 12.3825 13.9258 12.6136 13.8488C12.8445 13.7719 13.0904 13.6564 13.3516 13.5023C13.6125 13.3482 13.8348 13.2091 14.0191 13.0852C14.2031 12.961 14.4341 12.7985 14.7122 12.5974C14.8563 12.4931 14.9734 12.4087 15.0659 12.3425C15.1518 12.2809 15.2164 12.2349 15.2578 12.2058C15.5369 12.0116 15.9719 11.7092 16.5566 11.3032C17.6207 10.5639 19.1878 9.47571 21.2645 8.03435C21.8891 7.59811 22.4109 7.07167 22.8303 6.45578C23.2489 5.83989 23.4588 5.19386 23.4588 4.51788C23.4588 3.95311 23.2553 3.46985 22.8492 3.06734C22.4426 2.66534 21.9612 2.46423 21.405 2.46423Z" fill="#E9BA89"/>
</g>
<defs>
<clipPath id="clip0">
<rect width="23" height="23" fill="white" transform="translate(0.458984)"/>
</clipPath>
</defs>
</svg>
