<svg width="24" height="23" viewBox="0 0 24 23" fill="none" xmlns="http://www.w3.org/2000/svg">
<g clip-path="url(#clip0)">
<path d="M22.9433 18.1767L19.3914 14.6244C18.6839 13.9197 17.5122 13.9411 16.7801 14.6735L14.9906 16.4626C14.8775 16.4003 14.7605 16.3352 14.6375 16.2662C13.5074 15.64 11.9608 14.7818 10.3332 13.1531C8.70083 11.5209 7.84183 9.97186 7.21376 8.84107C7.14749 8.72128 7.08399 8.60577 7.02128 8.49609L8.2223 7.29685L8.81277 6.70565C9.54603 5.97219 9.56625 4.80091 8.86041 4.09421L5.30842 0.541431C4.60258 -0.164275 3.43044 -0.142866 2.69718 0.590593L1.69611 1.59741L1.72346 1.62457C1.38779 2.05288 1.10729 2.54688 0.898554 3.07959C0.706137 3.58667 0.586338 4.07056 0.53156 4.55543C0.0625434 8.44369 1.83936 11.9973 6.66142 16.8194C13.327 23.4845 18.6985 22.981 18.9303 22.9564C19.435 22.8961 19.9186 22.7755 20.4102 22.5846C20.9383 22.3783 21.4319 22.0982 21.86 21.7632L21.8819 21.7826L22.896 20.7896C23.6278 20.0562 23.6488 18.8846 22.9433 18.1767Z" fill="#E9BA89"/>
</g>
<defs>
<clipPath id="clip0">
<rect width="23" height="23" fill="white" transform="translate(0.458984)"/>
</clipPath>
</defs>
</svg>
